<svg width="26" height="26" viewBox="0 0 26 26" fill="none" xmlns="http://www.w3.org/2000/svg">
<g clip-path="url(#clip0_1233_1057)">
<g clip-path="url(#clip1_1233_1057)">
<path d="M5.98855 12.6479C5.98855 11.7165 5.98855 11.2507 6.09094 10.8686C6.36878 9.83165 7.17873 9.02171 8.21566 8.74386C8.59777 8.64148 9.06351 8.64148 9.99497 8.64148H12.9998M5.98855 12.6479C4.88222 12.6479 3.98535 13.5447 3.98535 14.6511V15.6527C3.98535 16.7591 4.88222 17.6559 5.98855 17.6559M5.98855 12.6479V17.6559M12.9998 8.64148H16.0046C16.936 8.64148 17.4018 8.64148 17.7839 8.74386C18.8208 9.02171 19.6307 9.83165 19.9086 10.8686C20.011 11.2507 20.011 11.7165 20.011 12.6479M12.9998 8.64148V5.9888M5.98855 17.6559C5.98855 18.5873 5.98855 19.0531 6.09094 19.4352C6.36878 20.4721 7.17873 21.282 8.21566 21.5599C8.59777 21.6623 9.06351 21.6623 9.99497 21.6623H16.0046C16.936 21.6623 17.4018 21.6623 17.7839 21.5599C18.8208 21.282 19.6307 20.4721 19.9086 19.4352C20.011 19.0531 20.011 18.5873 20.011 17.6559M20.011 17.6559C21.1174 17.6559 22.0142 16.7591 22.0142 15.6527V14.6511C22.0142 13.5447 21.1174 12.6479 20.011 12.6479M20.011 17.6559V12.6479M16.0046 17.6559H9.99497M12.9998 5.9888C12.4466 5.9888 11.9981 5.54036 11.9981 4.9872C11.9981 4.43403 12.4466 3.9856 12.9998 3.9856C13.5529 3.9856 14.0014 4.43403 14.0014 4.9872C14.0014 5.54036 13.5529 5.9888 12.9998 5.9888Z" stroke="white" stroke-width="1.5024" stroke-linecap="round" stroke-linejoin="round"/>
<path d="M14.252 13.2506C14.252 12.5591 14.8124 11.9985 15.504 11.9985C16.1954 11.9985 16.7559 12.5591 16.7559 13.2506C16.7559 13.942 16.1954 14.5026 15.504 14.5026C14.8124 14.5026 14.252 13.942 14.252 13.2506Z" fill="white"/>
<path d="M9.24414 13.2506C9.24414 12.5591 9.80468 11.9985 10.4961 11.9985C11.1876 11.9985 11.7481 12.5591 11.7481 13.2506C11.7481 13.942 11.1876 14.5026 10.4961 14.5026C9.80468 14.5026 9.24414 13.942 9.24414 13.2506Z" fill="white"/>
</g>
</g>
<defs>
<clipPath id="clip0_1233_1057">
<rect width="25" height="25" fill="white" transform="translate(0.5 0.5)"/>
</clipPath>
<clipPath id="clip1_1233_1057">
<rect width="25" height="25" fill="white" transform="translate(0.5 0.5)"/>
</clipPath>
</defs>
</svg>
