<svg xmlns="http://www.w3.org/2000/svg" xmlns:xlink="http://www.w3.org/1999/xlink" width="100" zoomAndPan="magnify" viewBox="0 0 75 74.999997" height="100" preserveAspectRatio="xMidYMid meet" version="1.2"><defs><clipPath id="de538a4c60"><path d="M 29 0.902344 L 38 0.902344 L 38 9 L 29 9 Z M 29 0.902344 "/></clipPath><clipPath id="a0a1c8b567"><path d="M 65 25 L 73.359375 25 L 73.359375 34 L 65 34 Z M 65 25 "/></clipPath><clipPath id="dd2c059323"><path d="M 65 41 L 73.359375 41 L 73.359375 49 L 65 49 Z M 65 41 "/></clipPath><clipPath id="d6b432517f"><path d="M 1.359375 25 L 10 25 L 10 34 L 1.359375 34 Z M 1.359375 25 "/></clipPath><clipPath id="32e39fa3ae"><path d="M 1.359375 41 L 10 41 L 10 49 L 1.359375 49 Z M 1.359375 41 "/></clipPath></defs><g id="20b56f2d47"><path style=" stroke:none;fill-rule:evenodd;fill:#ffffff;fill-opacity:1;" d="M 49.167969 51.386719 L 25.507812 51.386719 C 23.070312 51.386719 21.0625 49.378906 21.0625 46.945312 L 21.0625 27.769531 C 21.0625 25.289062 23.070312 23.28125 25.507812 23.28125 L 49.167969 23.28125 C 51.644531 23.28125 53.652344 25.289062 53.652344 27.769531 L 53.652344 46.945312 C 53.652344 49.378906 51.644531 51.386719 49.167969 51.386719 Z M 26.316406 42.503906 C 26.234375 42.503906 26.148438 42.503906 26.0625 42.460938 C 25.675781 42.332031 25.507812 41.90625 25.675781 41.519531 L 27.214844 37.675781 L 27.214844 37.632812 L 29.992188 30.714844 C 29.992188 30.714844 29.992188 30.671875 29.992188 30.671875 C 30.035156 30.585938 30.078125 30.5 30.160156 30.457031 C 30.203125 30.375 30.289062 30.332031 30.375 30.289062 C 30.375 30.289062 30.375 30.289062 30.417969 30.289062 C 30.503906 30.246094 30.546875 30.246094 30.632812 30.246094 C 30.71875 30.246094 30.800781 30.246094 30.886719 30.289062 C 30.886719 30.289062 30.929688 30.289062 30.929688 30.289062 C 31.015625 30.332031 31.101562 30.375 31.144531 30.457031 C 31.230469 30.5 31.273438 30.585938 31.316406 30.671875 C 31.316406 30.671875 31.316406 30.714844 31.316406 30.714844 L 34.089844 37.632812 L 34.089844 37.675781 L 35.628906 41.519531 C 35.757812 41.90625 35.585938 42.332031 35.246094 42.460938 C 34.859375 42.589844 34.433594 42.417969 34.304688 42.078125 L 32.9375 38.660156 L 28.367188 38.660156 L 27 42.078125 C 26.875 42.332031 26.617188 42.503906 26.316406 42.503906 Z M 42.589844 42.546875 L 38.789062 42.546875 C 38.40625 42.546875 38.105469 42.246094 38.105469 41.863281 C 38.105469 41.4375 38.40625 41.136719 38.789062 41.136719 L 41.867188 41.136719 L 41.867188 31.613281 L 38.789062 31.613281 C 38.40625 31.613281 38.105469 31.3125 38.105469 30.929688 C 38.105469 30.5 38.40625 30.203125 38.789062 30.203125 L 46.351562 30.203125 C 46.734375 30.203125 47.078125 30.5 47.078125 30.929688 C 47.078125 31.3125 46.734375 31.613281 46.351562 31.613281 L 43.273438 31.613281 L 43.273438 41.136719 L 46.351562 41.136719 C 46.734375 41.136719 47.078125 41.4375 47.078125 41.863281 C 47.078125 42.246094 46.734375 42.546875 46.351562 42.546875 Z M 32.382812 37.207031 L 30.632812 32.894531 L 28.921875 37.207031 Z M 32.382812 37.207031 "/><path style=" stroke:none;fill-rule:evenodd;fill:#ffffff;fill-opacity:1;" d="M 33.578125 24.734375 C 33.195312 24.734375 32.851562 24.394531 32.851562 24.007812 L 32.851562 7.90625 C 32.851562 7.523438 33.195312 7.179688 33.578125 7.179688 C 33.964844 7.179688 34.261719 7.523438 34.261719 7.90625 L 34.261719 24.007812 C 34.261719 24.394531 33.964844 24.734375 33.578125 24.734375 Z M 33.578125 24.734375 "/><g clip-rule="nonzero" clip-path="url(#de538a4c60)"><path style=" stroke:none;fill-rule:evenodd;fill:#ffffff;fill-opacity:1;" d="M 33.578125 8.632812 C 31.445312 8.632812 29.691406 6.882812 29.691406 4.746094 C 29.691406 2.652344 31.445312 0.902344 33.578125 0.902344 C 35.714844 0.902344 37.421875 2.652344 37.421875 4.746094 C 37.421875 6.882812 35.714844 8.632812 33.578125 8.632812 Z M 33.578125 8.632812 "/></g><path style=" stroke:none;fill-rule:evenodd;fill:#ffffff;fill-opacity:1;" d="M 41.140625 24.734375 C 40.753906 24.734375 40.414062 24.394531 40.414062 24.007812 L 40.414062 17.347656 C 40.414062 16.960938 40.753906 16.621094 41.140625 16.621094 C 41.523438 16.621094 41.867188 16.960938 41.867188 17.347656 L 41.867188 24.007812 C 41.867188 24.394531 41.523438 24.734375 41.140625 24.734375 Z M 41.140625 24.734375 "/><path style=" stroke:none;fill-rule:evenodd;fill:#ffffff;fill-opacity:1;" d="M 41.140625 18.070312 C 39.003906 18.070312 37.296875 16.320312 37.296875 14.183594 C 37.296875 12.09375 39.003906 10.339844 41.140625 10.339844 C 43.273438 10.339844 44.984375 12.09375 44.984375 14.183594 C 44.984375 16.320312 43.273438 18.070312 41.140625 18.070312 Z M 41.140625 18.070312 "/><path style=" stroke:none;fill-rule:evenodd;fill:#ffffff;fill-opacity:1;" d="M 48.699219 24.734375 C 48.316406 24.734375 47.972656 24.394531 47.972656 24.007812 L 47.972656 13.585938 C 47.972656 11.496094 49.683594 9.785156 51.773438 9.785156 L 56.300781 9.785156 C 56.6875 9.785156 57.027344 10.128906 57.027344 10.511719 C 57.027344 10.894531 56.6875 11.238281 56.300781 11.238281 L 51.773438 11.238281 C 50.492188 11.238281 49.425781 12.261719 49.425781 13.585938 L 49.425781 24.007812 C 49.425781 24.394531 49.082031 24.734375 48.699219 24.734375 Z M 48.699219 24.734375 "/><path style=" stroke:none;fill-rule:evenodd;fill:#ffffff;fill-opacity:1;" d="M 59.460938 14.355469 C 57.328125 14.355469 55.574219 12.648438 55.574219 10.511719 C 55.574219 8.375 57.328125 6.667969 59.460938 6.667969 C 61.597656 6.667969 63.308594 8.375 63.308594 10.511719 C 63.308594 12.648438 61.597656 14.355469 59.460938 14.355469 Z M 59.460938 14.355469 "/><path style=" stroke:none;fill-rule:evenodd;fill:#ffffff;fill-opacity:1;" d="M 26.019531 24.734375 C 25.589844 24.734375 25.292969 24.394531 25.292969 24.007812 L 25.292969 13.585938 C 25.292969 12.261719 24.226562 11.238281 22.945312 11.238281 L 18.414062 11.238281 C 17.988281 11.238281 17.691406 10.894531 17.691406 10.511719 C 17.691406 10.128906 17.988281 9.785156 18.414062 9.785156 L 22.945312 9.785156 C 25.035156 9.785156 26.703125 11.496094 26.703125 13.585938 L 26.703125 24.007812 C 26.703125 24.394531 26.402344 24.734375 26.019531 24.734375 Z M 26.019531 24.734375 "/><path style=" stroke:none;fill-rule:evenodd;fill:#ffffff;fill-opacity:1;" d="M 15.253906 14.355469 C 13.121094 14.355469 11.410156 12.648438 11.410156 10.511719 C 11.410156 8.375 13.121094 6.667969 15.253906 6.667969 C 17.390625 6.667969 19.097656 8.375 19.097656 10.511719 C 19.097656 12.648438 17.390625 14.355469 15.253906 14.355469 Z M 15.253906 14.355469 "/><path style=" stroke:none;fill-rule:evenodd;fill:#ffffff;fill-opacity:1;" d="M 66.339844 30.332031 L 52.929688 30.332031 C 52.542969 30.332031 52.203125 29.988281 52.203125 29.605469 C 52.203125 29.21875 52.542969 28.921875 52.929688 28.921875 L 66.339844 28.921875 C 66.722656 28.921875 67.023438 29.21875 67.023438 29.605469 C 67.023438 29.988281 66.722656 30.332031 66.339844 30.332031 Z M 66.339844 30.332031 "/><g clip-rule="nonzero" clip-path="url(#a0a1c8b567)"><path style=" stroke:none;fill-rule:evenodd;fill:#ffffff;fill-opacity:1;" d="M 69.457031 33.492188 C 67.363281 33.492188 65.613281 31.738281 65.613281 29.605469 C 65.613281 27.46875 67.363281 25.761719 69.457031 25.761719 C 71.59375 25.761719 73.34375 27.46875 73.34375 29.605469 C 73.34375 31.738281 71.59375 33.492188 69.457031 33.492188 Z M 69.457031 33.492188 "/></g><path style=" stroke:none;fill-rule:evenodd;fill:#ffffff;fill-opacity:1;" d="M 56.941406 38.0625 L 52.929688 38.0625 C 52.542969 38.0625 52.203125 37.761719 52.203125 37.335938 C 52.203125 36.949219 52.542969 36.652344 52.929688 36.652344 L 56.941406 36.652344 C 57.328125 36.652344 57.625 36.949219 57.625 37.335938 C 57.625 37.761719 57.328125 38.0625 56.941406 38.0625 Z M 56.941406 38.0625 "/><path style=" stroke:none;fill-rule:evenodd;fill:#ffffff;fill-opacity:1;" d="M 60.0625 41.222656 C 57.96875 41.222656 56.214844 39.472656 56.214844 37.335938 C 56.214844 35.242188 57.96875 33.492188 60.0625 33.492188 C 62.195312 33.492188 63.949219 35.242188 63.949219 37.335938 C 63.949219 39.472656 62.195312 41.222656 60.0625 41.222656 Z M 60.0625 41.222656 "/><path style=" stroke:none;fill-rule:evenodd;fill:#ffffff;fill-opacity:1;" d="M 66.339844 45.75 L 52.929688 45.75 C 52.542969 45.75 52.203125 45.449219 52.203125 45.023438 C 52.203125 44.640625 52.542969 44.339844 52.929688 44.339844 L 66.339844 44.339844 C 66.722656 44.339844 67.023438 44.640625 67.023438 45.023438 C 67.023438 45.449219 66.722656 45.75 66.339844 45.75 Z M 66.339844 45.75 "/><g clip-rule="nonzero" clip-path="url(#dd2c059323)"><path style=" stroke:none;fill-rule:evenodd;fill:#ffffff;fill-opacity:1;" d="M 69.457031 48.910156 C 67.363281 48.910156 65.613281 47.160156 65.613281 45.023438 C 65.613281 42.929688 67.363281 41.179688 69.457031 41.179688 C 71.59375 41.179688 73.34375 42.929688 73.34375 45.023438 C 73.34375 47.160156 71.59375 48.910156 69.457031 48.910156 Z M 69.457031 48.910156 "/></g><path style=" stroke:none;fill-rule:evenodd;fill:#ffffff;fill-opacity:1;" d="M 33.578125 67.492188 C 33.195312 67.492188 32.851562 67.191406 32.851562 66.808594 L 32.851562 50.703125 C 32.851562 50.277344 33.195312 49.976562 33.578125 49.976562 C 33.964844 49.976562 34.261719 50.277344 34.261719 50.703125 L 34.261719 66.808594 C 34.261719 67.191406 33.964844 67.492188 33.578125 67.492188 Z M 33.578125 67.492188 "/><path style=" stroke:none;fill-rule:evenodd;fill:#ffffff;fill-opacity:1;" d="M 33.578125 73.8125 C 31.445312 73.8125 29.691406 72.0625 29.691406 69.925781 C 29.691406 67.789062 31.445312 66.082031 33.578125 66.082031 C 35.714844 66.082031 37.421875 67.789062 37.421875 69.925781 C 37.421875 72.0625 35.714844 73.8125 33.578125 73.8125 Z M 33.578125 73.8125 "/><path style=" stroke:none;fill-rule:evenodd;fill:#ffffff;fill-opacity:1;" d="M 41.140625 58.050781 C 40.753906 58.050781 40.414062 57.753906 40.414062 57.367188 L 40.414062 50.703125 C 40.414062 50.277344 40.753906 49.976562 41.140625 49.976562 C 41.523438 49.976562 41.867188 50.277344 41.867188 50.703125 L 41.867188 57.367188 C 41.867188 57.753906 41.523438 58.050781 41.140625 58.050781 Z M 41.140625 58.050781 "/><path style=" stroke:none;fill-rule:evenodd;fill:#ffffff;fill-opacity:1;" d="M 41.140625 64.371094 C 39.003906 64.371094 37.296875 62.621094 37.296875 60.484375 C 37.296875 58.351562 39.003906 56.640625 41.140625 56.640625 C 43.273438 56.640625 44.984375 58.351562 44.984375 60.484375 C 44.984375 62.621094 43.273438 64.371094 41.140625 64.371094 Z M 41.140625 64.371094 "/><path style=" stroke:none;fill-rule:evenodd;fill:#ffffff;fill-opacity:1;" d="M 56.300781 64.886719 L 51.773438 64.886719 C 49.683594 64.886719 47.972656 63.21875 47.972656 61.125 L 47.972656 50.703125 C 47.972656 50.277344 48.316406 49.976562 48.699219 49.976562 C 49.082031 49.976562 49.425781 50.277344 49.425781 50.703125 L 49.425781 61.125 C 49.425781 62.40625 50.492188 63.476562 51.773438 63.476562 L 56.300781 63.476562 C 56.6875 63.476562 57.027344 63.773438 57.027344 64.203125 C 57.027344 64.585938 56.6875 64.886719 56.300781 64.886719 Z M 56.300781 64.886719 "/><path style=" stroke:none;fill-rule:evenodd;fill:#ffffff;fill-opacity:1;" d="M 59.460938 68.046875 C 57.328125 68.046875 55.574219 66.292969 55.574219 64.203125 C 55.574219 62.066406 57.328125 60.316406 59.460938 60.316406 C 61.597656 60.316406 63.308594 62.066406 63.308594 64.203125 C 63.308594 66.292969 61.597656 68.046875 59.460938 68.046875 Z M 59.460938 68.046875 "/><path style=" stroke:none;fill-rule:evenodd;fill:#ffffff;fill-opacity:1;" d="M 22.945312 64.886719 L 18.414062 64.886719 C 17.988281 64.886719 17.691406 64.585938 17.691406 64.203125 C 17.691406 63.773438 17.988281 63.476562 18.414062 63.476562 L 22.945312 63.476562 C 24.226562 63.476562 25.292969 62.40625 25.292969 61.125 L 25.292969 50.703125 C 25.292969 50.277344 25.589844 49.976562 26.019531 49.976562 C 26.402344 49.976562 26.703125 50.277344 26.703125 50.703125 L 26.703125 61.125 C 26.703125 63.21875 25.035156 64.886719 22.945312 64.886719 Z M 22.945312 64.886719 "/><path style=" stroke:none;fill-rule:evenodd;fill:#ffffff;fill-opacity:1;" d="M 15.253906 68.046875 C 13.121094 68.046875 11.410156 66.292969 11.410156 64.203125 C 11.410156 62.066406 13.121094 60.316406 15.253906 60.316406 C 17.390625 60.316406 19.097656 62.066406 19.097656 64.203125 C 19.097656 66.292969 17.390625 68.046875 15.253906 68.046875 Z M 15.253906 68.046875 "/><path style=" stroke:none;fill-rule:evenodd;fill:#ffffff;fill-opacity:1;" d="M 21.789062 30.332031 L 8.378906 30.332031 C 7.992188 30.332031 7.652344 30.03125 7.652344 29.648438 C 7.652344 29.21875 7.992188 28.921875 8.378906 28.921875 L 21.789062 28.921875 C 22.175781 28.921875 22.472656 29.21875 22.472656 29.648438 C 22.472656 30.03125 22.175781 30.332031 21.789062 30.332031 Z M 21.789062 30.332031 "/><g clip-rule="nonzero" clip-path="url(#d6b432517f)"><path style=" stroke:none;fill-rule:evenodd;fill:#ffffff;fill-opacity:1;" d="M 5.21875 33.492188 C 3.125 33.492188 1.375 31.78125 1.375 29.648438 C 1.375 27.511719 3.125 25.761719 5.21875 25.761719 C 7.351562 25.761719 9.105469 27.511719 9.105469 29.648438 C 9.105469 31.78125 7.351562 33.492188 5.21875 33.492188 Z M 5.21875 33.492188 "/></g><path style=" stroke:none;fill-rule:evenodd;fill:#ffffff;fill-opacity:1;" d="M 21.789062 38.0625 L 17.773438 38.0625 C 17.390625 38.0625 17.050781 37.761719 17.050781 37.378906 C 17.050781 36.992188 17.390625 36.652344 17.773438 36.652344 L 21.789062 36.652344 C 22.175781 36.652344 22.472656 36.992188 22.472656 37.378906 C 22.472656 37.761719 22.175781 38.0625 21.789062 38.0625 Z M 21.789062 38.0625 "/><path style=" stroke:none;fill-rule:evenodd;fill:#ffffff;fill-opacity:1;" d="M 14.613281 41.222656 C 12.480469 41.222656 10.769531 39.515625 10.769531 37.378906 C 10.769531 35.242188 12.480469 33.492188 14.613281 33.492188 C 16.75 33.492188 18.5 35.242188 18.5 37.378906 C 18.5 39.515625 16.75 41.222656 14.613281 41.222656 Z M 14.613281 41.222656 "/><path style=" stroke:none;fill-rule:evenodd;fill:#ffffff;fill-opacity:1;" d="M 21.789062 45.792969 L 8.378906 45.792969 C 7.992188 45.792969 7.652344 45.449219 7.652344 45.066406 C 7.652344 44.683594 7.992188 44.339844 8.378906 44.339844 L 21.789062 44.339844 C 22.175781 44.339844 22.472656 44.683594 22.472656 45.066406 C 22.472656 45.449219 22.175781 45.792969 21.789062 45.792969 Z M 21.789062 45.792969 "/><g clip-rule="nonzero" clip-path="url(#32e39fa3ae)"><path style=" stroke:none;fill-rule:evenodd;fill:#ffffff;fill-opacity:1;" d="M 5.21875 48.910156 C 3.125 48.910156 1.375 47.203125 1.375 45.066406 C 1.375 42.929688 3.125 41.222656 5.21875 41.222656 C 7.351562 41.222656 9.105469 42.929688 9.105469 45.066406 C 9.105469 47.203125 7.351562 48.910156 5.21875 48.910156 Z M 5.21875 48.910156 "/></g></g></svg>