<svg width="26" height="26" viewBox="0 0 26 26" fill="none" xmlns="http://www.w3.org/2000/svg">
<g clip-path="url(#clip0_1233_1039)">
<g clip-path="url(#clip1_1233_1039)">
<path d="M6.22721 14.1165C5.39252 13.9866 4.97518 13.9216 4.85972 13.6899C4.82403 13.6184 4.80601 13.5393 4.80718 13.4593C4.81097 13.2004 5.15907 12.9612 5.85525 12.4828L16.6748 5.04733C17.7261 4.32493 18.2517 3.96372 18.5153 4.0945C18.5952 4.13415 18.6631 4.19442 18.7119 4.26909C18.873 4.51541 18.5765 5.08004 17.9836 6.20932L15.636 10.6802C15.4162 11.0988 15.3063 11.3081 15.3529 11.4937C15.3678 11.5529 15.3935 11.609 15.4285 11.659C15.5383 11.8156 15.7685 11.8694 16.229 11.977L19.8787 12.83C20.6776 13.0168 21.077 13.1101 21.1759 13.3462C21.2065 13.4193 21.2193 13.4985 21.2133 13.5775C21.194 13.8326 20.8442 14.0471 20.1449 14.4762L9.20154 21.1902C8.15396 21.8329 7.63017 22.1544 7.37487 22.0134C7.29736 21.9707 7.23257 21.9081 7.1871 21.8321C7.03736 21.5819 7.34013 21.0472 7.94571 19.9777L10.2143 15.9712C10.4716 15.5168 10.6002 15.2897 10.5483 15.0927C10.5318 15.0302 10.5034 14.9714 10.4645 14.9196C10.3423 14.7568 10.0844 14.7166 9.56848 14.6363L6.22721 14.1165Z" stroke="white" stroke-width="1.5024" stroke-linejoin="round"/>
</g>
</g>
<defs>
<clipPath id="clip0_1233_1039">
<rect width="25" height="25" fill="white" transform="translate(0.5 0.5)"/>
</clipPath>
<clipPath id="clip1_1233_1039">
<rect width="25" height="25" fill="white" transform="translate(0.5 0.5)"/>
</clipPath>
</defs>
</svg>
