<svg xmlns="http://www.w3.org/2000/svg" xmlns:xlink="http://www.w3.org/1999/xlink" width="100" zoomAndPan="magnify" viewBox="0 0 75 74.999997" height="100" preserveAspectRatio="xMidYMid meet" version="1.2"><defs><clipPath id="ce8757dbbe"><path d="M 7.5 12.414062 L 67.5 12.414062 L 67.5 62.664062 L 7.5 62.664062 Z M 7.5 12.414062 "/></clipPath><clipPath id="f4d823f310"><path d="M 7.5 23 L 67.5 23 L 67.5 25 L 7.5 25 Z M 7.5 23 "/></clipPath><clipPath id="479fd5ca1c"><path d="M 27 23 L 30 23 L 30 62.664062 L 27 62.664062 Z M 27 23 "/></clipPath><clipPath id="6cd0049838"><path d="M 55 50 L 62 50 L 62 62.664062 L 55 62.664062 Z M 55 50 "/></clipPath><clipPath id="c05dd2bea7"><path d="M 48 46 L 55 46 L 55 62.664062 L 48 62.664062 Z M 48 46 "/></clipPath><clipPath id="401697d122"><path d="M 41 44 L 47 44 L 47 62.664062 L 41 62.664062 Z M 41 44 "/></clipPath><clipPath id="ae29dd5d8a"><path d="M 33 39 L 40 39 L 40 62.664062 L 33 62.664062 Z M 33 39 "/></clipPath><clipPath id="c84dd3ed56"><path d="M 0 8.34375 L 75 8.34375 L 75 66.84375 L 0 66.84375 Z M 0 8.34375 "/></clipPath></defs><g id="15bd2dc26f"><g clip-rule="nonzero" clip-path="url(#ce8757dbbe)"><path style=" stroke:none;fill-rule:evenodd;fill:#ffffff;fill-opacity:1;" d="M 12.550781 13.71875 C 10.503906 13.71875 8.835938 15.386719 8.835938 17.433594 L 8.835938 57.554688 C 8.835938 59.605469 10.503906 61.273438 12.550781 61.273438 L 62.40625 61.273438 C 64.457031 61.273438 66.125 59.605469 66.125 57.554688 L 66.125 17.433594 C 66.125 15.382812 64.457031 13.71875 62.40625 13.71875 Z M 62.40625 62.582031 L 12.550781 62.582031 C 9.78125 62.582031 7.527344 60.328125 7.527344 57.554688 L 7.527344 17.433594 C 7.527344 14.664062 9.78125 12.410156 12.550781 12.410156 L 62.40625 12.410156 C 65.175781 12.410156 67.429688 14.664062 67.429688 17.433594 L 67.429688 57.554688 C 67.429688 60.328125 65.175781 62.582031 62.40625 62.582031 Z M 62.40625 62.582031 "/></g><g clip-rule="nonzero" clip-path="url(#f4d823f310)"><path style=" stroke:none;fill-rule:evenodd;fill:#ffffff;fill-opacity:1;" d="M 66.777344 24.839844 L 8.183594 24.839844 C 7.820312 24.839844 7.527344 24.550781 7.527344 24.1875 C 7.527344 23.824219 7.820312 23.535156 8.183594 23.535156 L 66.777344 23.535156 C 67.136719 23.535156 67.429688 23.828125 67.429688 24.1875 C 67.429688 24.550781 67.136719 24.839844 66.777344 24.839844 Z M 66.777344 24.839844 "/></g><path style=" stroke:none;fill-rule:evenodd;fill:#ffffff;fill-opacity:1;" d="M 42.125 17.09375 C 41.28125 17.09375 40.59375 17.78125 40.59375 18.625 C 40.59375 19.472656 41.28125 20.15625 42.125 20.15625 C 42.96875 20.15625 43.65625 19.472656 43.65625 18.625 C 43.65625 17.78125 42.96875 17.09375 42.125 17.09375 Z M 42.125 21.464844 C 40.558594 21.464844 39.285156 20.191406 39.285156 18.625 C 39.285156 17.0625 40.558594 15.785156 42.125 15.785156 C 43.691406 15.785156 44.964844 17.0625 44.964844 18.625 C 44.964844 20.191406 43.691406 21.464844 42.125 21.464844 Z M 42.125 21.464844 "/><path style=" stroke:none;fill-rule:evenodd;fill:#ffffff;fill-opacity:1;" d="M 51.039062 17.09375 C 50.195312 17.09375 49.507812 17.78125 49.507812 18.625 C 49.507812 19.472656 50.195312 20.15625 51.039062 20.15625 C 51.882812 20.15625 52.570312 19.472656 52.570312 18.625 C 52.570312 17.78125 51.882812 17.09375 51.039062 17.09375 Z M 51.039062 21.464844 C 49.472656 21.464844 48.199219 20.191406 48.199219 18.625 C 48.199219 17.0625 49.472656 15.785156 51.039062 15.785156 C 52.605469 15.785156 53.878906 17.0625 53.878906 18.625 C 53.878906 20.191406 52.605469 21.464844 51.039062 21.464844 Z M 51.039062 21.464844 "/><path style=" stroke:none;fill-rule:evenodd;fill:#ffffff;fill-opacity:1;" d="M 59.953125 17.09375 C 59.109375 17.09375 58.421875 17.78125 58.421875 18.625 C 58.421875 19.472656 59.109375 20.15625 59.953125 20.15625 C 60.796875 20.15625 61.484375 19.472656 61.484375 18.625 C 61.484375 17.78125 60.796875 17.09375 59.953125 17.09375 Z M 59.953125 21.464844 C 58.386719 21.464844 57.113281 20.191406 57.113281 18.625 C 57.113281 17.0625 58.386719 15.785156 59.953125 15.785156 C 61.515625 15.785156 62.792969 17.0625 62.792969 18.625 C 62.792969 20.191406 61.515625 21.464844 59.953125 21.464844 Z M 59.953125 21.464844 "/><path style=" stroke:none;fill-rule:evenodd;fill:#ffffff;fill-opacity:1;" d="M 14.511719 17.59375 C 13.941406 17.59375 13.476562 18.054688 13.476562 18.625 C 13.476562 19.195312 13.941406 19.660156 14.511719 19.660156 L 30.597656 19.660156 C 31.167969 19.660156 31.632812 19.195312 31.632812 18.625 C 31.632812 18.054688 31.167969 17.59375 30.597656 17.59375 Z M 30.597656 20.96875 L 14.511719 20.96875 C 13.21875 20.96875 12.167969 19.917969 12.167969 18.625 C 12.167969 17.335938 13.21875 16.285156 14.511719 16.285156 L 30.597656 16.285156 C 31.890625 16.285156 32.941406 17.335938 32.941406 18.625 C 32.941406 19.917969 31.890625 20.96875 30.597656 20.96875 Z M 30.597656 20.96875 "/><path style=" stroke:none;fill-rule:evenodd;fill:#ffffff;fill-opacity:1;" d="M 18.316406 29.496094 C 15.351562 29.496094 12.941406 31.90625 12.941406 34.871094 C 12.941406 37.835938 15.351562 40.246094 18.316406 40.246094 C 21.28125 40.246094 23.691406 37.835938 23.691406 34.871094 C 23.691406 31.90625 21.28125 29.496094 18.316406 29.496094 Z M 18.316406 41.554688 C 14.632812 41.554688 11.632812 38.554688 11.632812 34.871094 C 11.632812 31.183594 14.632812 28.1875 18.316406 28.1875 C 22 28.1875 25 31.1875 25 34.871094 C 25 38.554688 22 41.554688 18.316406 41.554688 Z M 18.316406 41.554688 "/><path style=" stroke:none;fill-rule:evenodd;fill:#ffffff;fill-opacity:1;" d="M 24.34375 35.523438 L 18.316406 35.523438 C 17.957031 35.523438 17.664062 35.230469 17.664062 34.871094 L 17.664062 28.84375 C 17.664062 28.480469 17.957031 28.1875 18.316406 28.1875 C 18.675781 28.1875 18.96875 28.480469 18.96875 28.84375 L 18.96875 34.214844 L 24.34375 34.214844 C 24.707031 34.214844 25 34.507812 25 34.871094 C 25 35.230469 24.707031 35.523438 24.34375 35.523438 Z M 24.34375 35.523438 "/><path style=" stroke:none;fill-rule:evenodd;fill:#ffffff;fill-opacity:1;" d="M 24.34375 45.648438 L 12.289062 45.648438 C 11.925781 45.648438 11.632812 45.355469 11.632812 44.992188 C 11.632812 44.632812 11.925781 44.339844 12.289062 44.339844 L 24.34375 44.339844 C 24.707031 44.339844 25 44.632812 25 44.992188 C 25 45.355469 24.707031 45.648438 24.34375 45.648438 Z M 24.34375 45.648438 "/><path style=" stroke:none;fill-rule:evenodd;fill:#ffffff;fill-opacity:1;" d="M 24.34375 49.738281 L 12.289062 49.738281 C 11.925781 49.738281 11.632812 49.445312 11.632812 49.085938 C 11.632812 48.722656 11.925781 48.433594 12.289062 48.433594 L 24.34375 48.433594 C 24.707031 48.433594 25 48.722656 25 49.085938 C 25 49.445312 24.707031 49.738281 24.34375 49.738281 Z M 24.34375 49.738281 "/><path style=" stroke:none;fill-rule:evenodd;fill:#ffffff;fill-opacity:1;" d="M 24.34375 53.832031 L 12.289062 53.832031 C 11.925781 53.832031 11.632812 53.539062 11.632812 53.179688 C 11.632812 52.816406 11.925781 52.523438 12.289062 52.523438 L 24.34375 52.523438 C 24.707031 52.523438 25 52.816406 25 53.179688 C 25 53.539062 24.707031 53.832031 24.34375 53.832031 Z M 24.34375 53.832031 "/><path style=" stroke:none;fill-rule:evenodd;fill:#ffffff;fill-opacity:1;" d="M 24.34375 57.925781 L 12.289062 57.925781 C 11.925781 57.925781 11.632812 57.632812 11.632812 57.273438 C 11.632812 56.910156 11.925781 56.617188 12.289062 56.617188 L 24.34375 56.617188 C 24.707031 56.617188 25 56.910156 25 57.273438 C 25 57.632812 24.707031 57.925781 24.34375 57.925781 Z M 24.34375 57.925781 "/><g clip-rule="nonzero" clip-path="url(#479fd5ca1c)"><path style=" stroke:none;fill-rule:evenodd;fill:#ffffff;fill-opacity:1;" d="M 28.449219 62.582031 C 28.089844 62.582031 27.796875 62.289062 27.796875 61.925781 L 27.796875 24.1875 C 27.796875 23.828125 28.089844 23.535156 28.449219 23.535156 C 28.8125 23.535156 29.105469 23.828125 29.105469 24.1875 L 29.105469 61.925781 C 29.105469 62.289062 28.8125 62.582031 28.449219 62.582031 Z M 28.449219 62.582031 "/></g><g clip-rule="nonzero" clip-path="url(#6cd0049838)"><path style=" stroke:none;fill-rule:evenodd;fill:#ffffff;fill-opacity:1;" d="M 60.691406 62.582031 C 60.332031 62.582031 60.039062 62.289062 60.039062 61.925781 L 60.039062 51.679688 L 57.019531 51.679688 L 57.019531 61.925781 C 57.019531 62.289062 56.726562 62.582031 56.367188 62.582031 C 56.003906 62.582031 55.710938 62.289062 55.710938 61.925781 L 55.710938 51.027344 C 55.710938 50.664062 56.003906 50.371094 56.367188 50.371094 L 60.691406 50.371094 C 61.054688 50.371094 61.347656 50.664062 61.347656 51.027344 L 61.347656 61.925781 C 61.347656 62.289062 61.054688 62.582031 60.691406 62.582031 Z M 60.691406 62.582031 "/></g><g clip-rule="nonzero" clip-path="url(#c05dd2bea7)"><path style=" stroke:none;fill-rule:evenodd;fill:#ffffff;fill-opacity:1;" d="M 53.414062 62.582031 C 53.054688 62.582031 52.761719 62.289062 52.761719 61.925781 L 52.761719 48.085938 L 49.742188 48.085938 L 49.742188 61.925781 C 49.742188 62.289062 49.449219 62.582031 49.089844 62.582031 C 48.726562 62.582031 48.433594 62.289062 48.433594 61.925781 L 48.433594 47.433594 C 48.433594 47.070312 48.726562 46.777344 49.089844 46.777344 L 53.414062 46.777344 C 53.777344 46.777344 54.070312 47.070312 54.070312 47.433594 L 54.070312 61.925781 C 54.070312 62.289062 53.777344 62.582031 53.414062 62.582031 Z M 53.414062 62.582031 "/></g><g clip-rule="nonzero" clip-path="url(#401697d122)"><path style=" stroke:none;fill-rule:evenodd;fill:#ffffff;fill-opacity:1;" d="M 46.140625 62.582031 C 45.777344 62.582031 45.484375 62.289062 45.484375 61.925781 L 45.484375 45.929688 L 42.464844 45.929688 L 42.464844 61.925781 C 42.464844 62.289062 42.171875 62.582031 41.8125 62.582031 C 41.449219 62.582031 41.15625 62.289062 41.15625 61.925781 L 41.15625 45.273438 C 41.15625 44.914062 41.449219 44.621094 41.8125 44.621094 L 46.140625 44.621094 C 46.5 44.621094 46.792969 44.914062 46.792969 45.273438 L 46.792969 61.925781 C 46.792969 62.289062 46.5 62.582031 46.140625 62.582031 Z M 46.140625 62.582031 "/></g><g clip-rule="nonzero" clip-path="url(#ae29dd5d8a)"><path style=" stroke:none;fill-rule:evenodd;fill:#ffffff;fill-opacity:1;" d="M 38.863281 62.582031 C 38.5 62.582031 38.207031 62.289062 38.207031 61.925781 L 38.207031 40.894531 L 35.1875 40.894531 L 35.1875 61.925781 C 35.1875 62.289062 34.894531 62.582031 34.535156 62.582031 C 34.171875 62.582031 33.878906 62.289062 33.878906 61.925781 L 33.878906 40.242188 C 33.878906 39.882812 34.171875 39.589844 34.535156 39.589844 L 38.863281 39.589844 C 39.222656 39.589844 39.515625 39.882812 39.515625 40.242188 L 39.515625 61.925781 C 39.515625 62.289062 39.222656 62.582031 38.863281 62.582031 Z M 38.863281 62.582031 "/></g><path style=" stroke:none;fill-rule:evenodd;fill:#ffffff;fill-opacity:1;" d="M 62.707031 39.351562 L 44.519531 39.351562 C 44.15625 39.351562 43.863281 39.058594 43.863281 38.699219 C 43.863281 38.335938 44.15625 38.042969 44.519531 38.042969 L 62.707031 38.042969 C 63.066406 38.042969 63.359375 38.335938 63.359375 38.699219 C 63.359375 39.058594 63.066406 39.351562 62.707031 39.351562 Z M 62.707031 39.351562 "/><path style=" stroke:none;fill-rule:evenodd;fill:#ffffff;fill-opacity:1;" d="M 62.707031 34.515625 L 44.519531 34.515625 C 44.15625 34.515625 43.863281 34.222656 43.863281 33.859375 C 43.863281 33.5 44.15625 33.207031 44.519531 33.207031 L 62.707031 33.207031 C 63.066406 33.207031 63.359375 33.5 63.359375 33.859375 C 63.359375 34.222656 63.066406 34.515625 62.707031 34.515625 Z M 62.707031 34.515625 "/><path style=" stroke:none;fill-rule:evenodd;fill:#ffffff;fill-opacity:1;" d="M 62.707031 29.679688 L 44.519531 29.679688 C 44.15625 29.679688 43.863281 29.386719 43.863281 29.023438 C 43.863281 28.664062 44.15625 28.371094 44.519531 28.371094 L 62.707031 28.371094 C 63.066406 28.371094 63.359375 28.664062 63.359375 29.023438 C 63.359375 29.386719 63.066406 29.679688 62.707031 29.679688 Z M 62.707031 29.679688 "/><path style=" stroke:none;fill-rule:nonzero;fill:#ffffff;fill-opacity:1;" d="M 32.757812 57.644531 L 36.117188 57.644531 C 36.804688 57.644531 37.359375 57.089844 37.359375 56.402344 L 37.359375 42.441406 C 37.359375 41.753906 36.804688 41.203125 36.117188 41.203125 L 32.757812 41.203125 C 32.070312 41.203125 31.515625 41.753906 31.515625 42.441406 L 31.515625 56.402344 C 31.515625 57.089844 32.070312 57.644531 32.757812 57.644531 Z M 32.757812 57.644531 "/><path style=" stroke:none;fill-rule:nonzero;fill:#ffffff;fill-opacity:1;" d="M 42.234375 57.644531 L 45.597656 57.644531 C 46.285156 57.644531 46.835938 57.089844 46.835938 56.402344 L 46.835938 32.605469 C 46.835938 31.917969 46.285156 31.367188 45.597656 31.367188 L 42.234375 31.367188 C 41.550781 31.367188 40.996094 31.917969 40.996094 32.605469 L 40.996094 56.402344 C 40.996094 57.089844 41.550781 57.644531 42.234375 57.644531 Z M 42.234375 57.644531 "/><path style=" stroke:none;fill-rule:nonzero;fill:#ffffff;fill-opacity:1;" d="M 61.195312 57.644531 L 64.558594 57.644531 C 65.242188 57.644531 65.796875 57.089844 65.796875 56.402344 L 65.796875 35.628906 C 65.796875 34.941406 65.242188 34.390625 64.558594 34.390625 L 61.195312 34.390625 C 60.507812 34.390625 59.957031 34.941406 59.957031 35.628906 L 59.957031 56.402344 C 59.957031 57.089844 60.515625 57.644531 61.195312 57.644531 Z M 61.195312 57.644531 "/><path style=" stroke:none;fill-rule:nonzero;fill:#ffffff;fill-opacity:1;" d="M 51.714844 57.644531 L 55.078125 57.644531 C 55.765625 57.644531 56.316406 57.089844 56.316406 56.402344 L 56.316406 39.617188 C 56.316406 38.929688 55.765625 38.375 55.078125 38.375 L 51.714844 38.375 C 51.027344 38.375 50.476562 38.929688 50.476562 39.617188 L 50.476562 56.402344 C 50.476562 57.089844 51.035156 57.644531 51.714844 57.644531 Z M 51.714844 57.644531 "/><path style=" stroke:none;fill-rule:nonzero;fill:#ffffff;fill-opacity:1;" d="M 16.023438 41.050781 L 24.167969 41.050781 C 24.746094 41.050781 25.210938 40.585938 25.210938 40.011719 C 25.210938 39.433594 24.746094 38.96875 24.167969 38.96875 L 16.023438 38.96875 C 15.449219 38.96875 14.980469 39.433594 14.980469 40.011719 C 14.980469 40.585938 15.449219 41.050781 16.023438 41.050781 Z M 16.023438 41.050781 "/><path style=" stroke:none;fill-rule:nonzero;fill:#ffffff;fill-opacity:1;" d="M 11.097656 41.902344 C 12.148438 41.902344 12.992188 41.058594 12.992188 40.011719 C 12.992188 38.960938 12.148438 38.117188 11.097656 38.117188 C 10.046875 38.117188 9.203125 38.960938 9.203125 40.011719 C 9.203125 41.058594 10.046875 41.902344 11.097656 41.902344 Z M 11.097656 41.902344 "/><path style=" stroke:none;fill-rule:nonzero;fill:#ffffff;fill-opacity:1;" d="M 16.023438 33.183594 L 24.167969 33.183594 C 24.746094 33.183594 25.210938 32.71875 25.210938 32.140625 C 25.210938 31.566406 24.746094 31.097656 24.167969 31.097656 L 16.023438 31.097656 C 15.449219 31.097656 14.980469 31.566406 14.980469 32.140625 C 14.980469 32.71875 15.449219 33.183594 16.023438 33.183594 Z M 16.023438 33.183594 "/><path style=" stroke:none;fill-rule:nonzero;fill:#ffffff;fill-opacity:1;" d="M 11.097656 34.035156 C 12.148438 34.035156 12.992188 33.191406 12.992188 32.140625 C 12.992188 31.089844 12.148438 30.246094 11.097656 30.246094 C 10.046875 30.246094 9.203125 31.089844 9.203125 32.140625 C 9.203125 33.191406 10.046875 34.035156 11.097656 34.035156 Z M 11.097656 34.035156 "/><path style=" stroke:none;fill-rule:nonzero;fill:#ffffff;fill-opacity:1;" d="M 16.023438 48.921875 L 24.167969 48.921875 C 24.746094 48.921875 25.210938 48.457031 25.210938 47.878906 C 25.210938 47.304688 24.746094 46.835938 24.167969 46.835938 L 16.023438 46.835938 C 15.449219 46.835938 14.980469 47.304688 14.980469 47.878906 C 14.980469 48.457031 15.449219 48.921875 16.023438 48.921875 Z M 16.023438 48.921875 "/><path style=" stroke:none;fill-rule:nonzero;fill:#ffffff;fill-opacity:1;" d="M 12.992188 47.878906 C 12.992188 48.128906 12.945312 48.371094 12.847656 48.605469 C 12.753906 48.835938 12.617188 49.039062 12.4375 49.21875 C 12.261719 49.394531 12.054688 49.53125 11.824219 49.628906 C 11.589844 49.726562 11.347656 49.773438 11.097656 49.773438 C 10.847656 49.773438 10.605469 49.726562 10.375 49.628906 C 10.140625 49.53125 9.9375 49.394531 9.757812 49.21875 C 9.582031 49.039062 9.445312 48.835938 9.347656 48.605469 C 9.253906 48.371094 9.203125 48.128906 9.203125 47.878906 C 9.203125 47.628906 9.253906 47.386719 9.347656 47.152344 C 9.445312 46.921875 9.582031 46.71875 9.757812 46.539062 C 9.9375 46.363281 10.140625 46.226562 10.375 46.128906 C 10.605469 46.03125 10.847656 45.984375 11.097656 45.984375 C 11.347656 45.984375 11.589844 46.03125 11.824219 46.128906 C 12.054688 46.226562 12.261719 46.363281 12.4375 46.539062 C 12.617188 46.71875 12.753906 46.921875 12.847656 47.152344 C 12.945312 47.386719 12.992188 47.628906 12.992188 47.878906 Z M 12.992188 47.878906 "/><path style=" stroke:none;fill-rule:nonzero;fill:#ffffff;fill-opacity:1;" d="M 16.023438 56.789062 L 24.167969 56.789062 C 24.746094 56.789062 25.210938 56.324219 25.210938 55.75 C 25.210938 55.171875 24.746094 54.707031 24.167969 54.707031 L 16.023438 54.707031 C 15.449219 54.707031 14.980469 55.171875 14.980469 55.75 C 14.980469 56.324219 15.449219 56.789062 16.023438 56.789062 Z M 16.023438 56.789062 "/><path style=" stroke:none;fill-rule:nonzero;fill:#ffffff;fill-opacity:1;" d="M 11.097656 57.644531 C 12.148438 57.644531 12.992188 56.796875 12.992188 55.75 C 12.992188 54.699219 12.148438 53.855469 11.097656 53.855469 C 10.046875 53.855469 9.203125 54.699219 9.203125 55.75 C 9.203125 56.796875 10.046875 57.644531 11.097656 57.644531 Z M 11.097656 57.644531 "/><g clip-rule="nonzero" clip-path="url(#c84dd3ed56)"><path style=" stroke:none;fill-rule:nonzero;fill:#ffffff;fill-opacity:1;" d="M 67.675781 8.34375 L 7.324219 8.34375 C 3.292969 8.34375 0.0078125 11.628906 0.0078125 15.660156 L 0.0078125 59.339844 C 0.0078125 63.371094 3.292969 66.65625 7.324219 66.65625 L 67.675781 66.65625 C 71.707031 66.65625 74.992188 63.371094 74.992188 59.339844 L 74.992188 15.660156 C 74.992188 11.628906 71.707031 8.34375 67.675781 8.34375 Z M 48.882812 14.839844 L 67.257812 14.839844 C 67.933594 14.839844 68.488281 15.390625 68.488281 16.070312 C 68.488281 16.75 67.933594 17.300781 67.257812 17.300781 L 48.882812 17.300781 C 48.203125 17.300781 47.648438 16.75 47.648438 16.070312 C 47.648438 15.390625 48.203125 14.839844 48.882812 14.839844 Z M 20.324219 14.003906 C 21.460938 14.003906 22.386719 14.925781 22.386719 16.0625 C 22.386719 17.199219 21.460938 18.121094 20.324219 18.121094 C 19.1875 18.121094 18.265625 17.199219 18.265625 16.0625 C 18.265625 14.925781 19.1875 14.003906 20.324219 14.003906 Z M 14.285156 14.003906 C 15.421875 14.003906 16.347656 14.925781 16.347656 16.0625 C 16.347656 17.199219 15.421875 18.121094 14.285156 18.121094 C 13.152344 18.121094 12.226562 17.199219 12.226562 16.0625 C 12.226562 14.925781 13.152344 14.003906 14.285156 14.003906 Z M 8.25 14.003906 C 9.386719 14.003906 10.308594 14.925781 10.308594 16.0625 C 10.308594 17.199219 9.386719 18.121094 8.25 18.121094 C 7.113281 18.121094 6.1875 17.199219 6.1875 16.0625 C 6.1875 14.925781 7.113281 14.003906 8.25 14.003906 Z M 72.527344 59.339844 C 72.527344 62.015625 70.351562 64.195312 67.675781 64.195312 L 7.324219 64.195312 C 4.648438 64.195312 2.472656 62.015625 2.472656 59.339844 L 2.472656 23.789062 L 72.527344 23.789062 Z M 72.527344 59.339844 "/></g></g></svg>