<svg xmlns="http://www.w3.org/2000/svg" xmlns:xlink="http://www.w3.org/1999/xlink" width="100" zoomAndPan="magnify" viewBox="0 0 75 74.999997" height="100" preserveAspectRatio="xMidYMid meet" version="1.2"><g id="13cfb07866"><path style=" stroke:none;fill-rule:evenodd;fill:#ffffff;fill-opacity:1;" d="M 23.757812 23.753906 C 32.621094 14.890625 42.050781 8.179688 50.125 4.496094 C 59.042969 0.421875 66.644531 -0.00390625 70.824219 4.175781 C 75 8.351562 74.574219 15.957031 70.507812 24.875 C 68.980469 28.21875 66.933594 31.789062 64.4375 35.464844 C 63.210938 33.796875 61.9375 32.167969 60.628906 30.582031 C 62.46875 27.753906 63.992188 25.015625 65.167969 22.4375 C 68.183594 15.820312 68.921875 10.601562 66.660156 8.339844 C 64.398438 6.078125 59.175781 6.8125 52.5625 9.832031 C 49.984375 11.011719 47.246094 12.53125 44.417969 14.367188 L 44.390625 14.34375 L 42.917969 15.347656 C 41.203125 16.511719 39.53125 17.742188 37.902344 19.023438 L 35.625 20.8125 L 35.667969 20.847656 C 33.078125 22.996094 30.480469 25.359375 27.917969 27.917969 C 25.363281 30.472656 23.003906 33.066406 20.859375 35.648438 C 19.605469 34.058594 18.410156 32.425781 17.277344 30.769531 C 19.28125 28.414062 21.445312 26.066406 23.757812 23.753906 Z M 23.757812 51.242188 C 26.066406 53.554688 28.414062 55.71875 30.765625 57.722656 C 32.425781 56.589844 34.0625 55.386719 35.648438 54.136719 C 33.066406 51.996094 30.476562 49.632812 27.921875 47.078125 C 19.53125 38.691406 13.230469 29.886719 9.832031 22.4375 C 6.8125 15.820312 6.078125 10.601562 8.335938 8.339844 C 10.601562 6.078125 15.820312 6.8125 22.4375 9.832031 C 25.015625 11.011719 27.753906 12.535156 30.582031 14.367188 C 32.167969 13.0625 33.796875 11.785156 35.460938 10.5625 C 31.792969 8.0625 28.21875 6.019531 24.875 4.492188 C 15.957031 0.421875 8.355469 -0.00390625 4.175781 4.175781 C 0 8.351562 0.425781 15.957031 4.492188 24.875 C 8.179688 32.953125 14.890625 42.378906 23.757812 51.242188 Z M 57.71875 44.234375 C 56.585938 42.574219 55.386719 40.9375 54.136719 39.355469 C 51.992188 41.933594 49.632812 44.527344 47.078125 47.082031 C 44.515625 49.644531 41.917969 52.007812 39.328125 54.15625 L 39.371094 54.191406 L 37.09375 55.980469 C 35.464844 57.257812 33.792969 58.492188 32.082031 59.652344 L 30.609375 60.660156 L 30.578125 60.636719 C 27.75 62.472656 25.011719 63.996094 22.4375 65.171875 C 15.820312 68.1875 10.601562 68.925781 8.335938 66.664062 C 6.078125 64.402344 6.8125 59.179688 9.832031 52.570312 C 11.011719 49.992188 12.53125 47.246094 14.367188 44.417969 C 13.0625 42.832031 11.785156 41.203125 10.5625 39.542969 C 8.0625 43.210938 6.019531 46.785156 4.492188 50.125 C 0.421875 59.042969 -0.00390625 66.648438 4.171875 70.828125 C 8.351562 75.003906 15.957031 74.578125 24.875 70.507812 C 32.953125 66.824219 42.378906 60.109375 51.242188 51.246094 C 53.554688 48.933594 55.71875 46.589844 57.71875 44.234375 Z M 51.242188 23.753906 C 48.933594 21.445312 46.585938 19.28125 44.234375 17.28125 C 42.574219 18.414062 40.9375 19.613281 39.351562 20.863281 C 41.933594 23.007812 44.523438 25.363281 47.078125 27.917969 C 55.46875 36.3125 61.769531 45.113281 65.167969 52.566406 C 68.1875 59.175781 68.921875 64.398438 66.664062 66.660156 C 64.402344 68.921875 59.179688 68.1875 52.5625 65.167969 C 49.984375 63.992188 47.246094 62.46875 44.417969 60.628906 C 42.832031 61.941406 41.203125 63.21875 39.539062 64.4375 C 43.207031 66.9375 46.78125 68.984375 50.125 70.507812 C 59.042969 74.574219 66.644531 75 70.824219 70.824219 C 75 66.644531 74.574219 59.039062 70.507812 50.125 C 66.820312 42.050781 60.109375 32.617188 51.242188 23.753906 Z M 31.375 39.171875 L 36.402344 39.171875 L 36.402344 50.144531 L 43.625 35.824219 L 38.597656 35.824219 L 38.597656 24.859375 Z M 31.375 39.171875 "/></g></svg>