<svg xmlns="http://www.w3.org/2000/svg" xmlns:xlink="http://www.w3.org/1999/xlink" width="100" zoomAndPan="magnify" viewBox="0 0 75 74.999997" height="100" preserveAspectRatio="xMidYMid meet" version="1.2"><g id="b12d0b24d3"><path style=" stroke:none;fill-rule:evenodd;fill:#ffffff;fill-opacity:1;" d="M 43.644531 9.082031 L 37.074219 9.082031 L 37.074219 5.246094 L 45.1875 5.246094 C 46.707031 5.246094 47.945312 6.484375 47.945312 8.003906 L 47.945312 29.917969 C 46.664062 29.804688 45.386719 29.828125 44.109375 29.984375 L 44.109375 9.546875 C 44.109375 9.289062 43.902344 9.082031 43.644531 9.082031 Z M 50.878906 43.386719 L 44.148438 49.496094 L 41.851562 47.199219 C 41.363281 46.714844 40.574219 46.714844 40.085938 47.199219 C 39.597656 47.6875 39.597656 48.476562 40.085938 48.964844 L 43.222656 52.101562 C 43.707031 52.585938 44.511719 52.589844 44.992188 52.09375 L 52.554688 45.230469 C 53.066406 44.765625 53.101562 43.976562 52.640625 43.46875 C 52.175781 42.960938 51.386719 42.921875 50.878906 43.386719 Z M 74.464844 71.285156 L 71.40625 74.4375 C 70.871094 74.988281 69.980469 75.003906 69.425781 74.464844 L 60.957031 66.25 C 60.40625 65.710938 60.390625 64.820312 60.929688 64.265625 L 61.09375 64.09375 L 56.375 59.472656 C 53.679688 61.785156 50.171875 63.183594 46.34375 63.183594 C 37.828125 63.183594 30.921875 56.277344 30.921875 47.761719 C 30.921875 39.246094 37.828125 32.34375 46.34375 32.34375 C 54.859375 32.34375 61.761719 39.246094 61.761719 47.761719 C 61.761719 51.046875 60.734375 54.085938 58.988281 56.589844 L 63.804688 61.304688 L 63.984375 61.113281 C 64.523438 60.5625 65.414062 60.546875 65.96875 61.085938 L 74.4375 69.300781 C 74.988281 69.839844 75.003906 70.730469 74.464844 71.285156 Z M 57.246094 47.761719 C 57.246094 41.742188 52.363281 36.859375 46.34375 36.859375 C 40.320312 36.859375 35.4375 41.742188 35.4375 47.761719 C 35.4375 53.785156 40.320312 58.667969 46.34375 58.667969 C 52.363281 58.667969 57.246094 53.785156 57.246094 47.761719 Z M 13.363281 10.277344 L 13.363281 4.050781 C 13.363281 3.792969 13.574219 3.582031 13.832031 3.582031 L 19.0625 3.582031 C 19.269531 3.582031 19.445312 3.453125 19.507812 3.257812 C 20.113281 1.367188 21.882812 0 23.972656 0 C 26.0625 0 27.832031 1.367188 28.433594 3.257812 C 28.496094 3.453125 28.671875 3.582031 28.878906 3.582031 L 34.113281 3.582031 C 34.371094 3.582031 34.582031 3.792969 34.582031 4.050781 L 34.582031 10.277344 C 34.582031 10.535156 34.371094 10.746094 34.113281 10.746094 L 13.832031 10.746094 C 13.574219 10.746094 13.363281 10.535156 13.363281 10.277344 Z M 22.734375 3.839844 C 22.734375 4.523438 23.289062 5.078125 23.972656 5.078125 C 24.65625 5.078125 25.210938 4.523438 25.210938 3.839844 C 25.210938 3.15625 24.65625 2.601562 23.972656 2.601562 C 23.289062 2.601562 22.734375 3.15625 22.734375 3.839844 Z M 31.386719 57.625 L 4.300781 57.625 C 4.042969 57.625 3.832031 57.414062 3.832031 57.15625 L 3.832031 9.546875 C 3.832031 9.289062 4.042969 9.082031 4.300781 9.082031 L 10.867188 9.082031 L 10.867188 5.246094 L 2.753906 5.246094 C 1.238281 5.246094 0 6.484375 0 8.003906 L 0 58.703125 C 0 60.21875 1.238281 61.457031 2.753906 61.457031 L 34.792969 61.457031 C 33.484375 60.351562 32.335938 59.058594 31.386719 57.625 Z M 17.882812 24.671875 C 17.882812 25.167969 17.472656 25.578125 16.976562 25.578125 L 10.039062 25.578125 C 9.539062 25.578125 9.132812 25.167969 9.132812 24.671875 L 9.132812 17.734375 C 9.132812 17.234375 9.539062 16.828125 10.039062 16.828125 L 16.976562 16.828125 C 17.472656 16.828125 17.882812 17.234375 17.882812 17.734375 Z M 16.136719 18.890625 C 15.601562 18.457031 14.816406 18.539062 14.382812 19.078125 L 13.085938 20.683594 L 12.542969 20.140625 C 12.054688 19.652344 11.265625 19.652344 10.78125 20.140625 C 10.292969 20.628906 10.292969 21.417969 10.78125 21.90625 L 12.300781 23.425781 C 12.828125 23.953125 13.695312 23.902344 14.15625 23.320312 L 16.324219 20.644531 C 16.753906 20.109375 16.671875 19.324219 16.136719 18.890625 Z M 17.882812 38.707031 C 17.882812 39.207031 17.472656 39.613281 16.976562 39.613281 L 10.039062 39.613281 C 9.539062 39.613281 9.132812 39.207031 9.132812 38.707031 L 9.132812 31.769531 C 9.132812 31.273438 9.539062 30.863281 10.039062 30.863281 L 16.976562 30.863281 C 17.472656 30.863281 17.882812 31.273438 17.882812 31.769531 Z M 16.136719 32.929688 C 15.601562 32.496094 14.816406 32.578125 14.382812 33.113281 L 13.085938 34.71875 L 12.542969 34.179688 C 12.054688 33.691406 11.265625 33.691406 10.78125 34.179688 C 10.292969 34.664062 10.292969 35.453125 10.78125 35.941406 L 12.300781 37.460938 C 12.828125 37.992188 13.695312 37.9375 14.15625 37.359375 L 16.324219 34.683594 C 16.753906 34.148438 16.671875 33.359375 16.136719 32.929688 Z M 17.882812 45.808594 L 17.882812 52.746094 C 17.882812 53.242188 17.472656 53.652344 16.976562 53.652344 L 10.039062 53.652344 C 9.539062 53.652344 9.132812 53.242188 9.132812 52.746094 L 9.132812 45.808594 C 9.132812 45.308594 9.539062 44.902344 10.039062 44.902344 L 16.976562 44.902344 C 17.472656 44.902344 17.882812 45.308594 17.882812 45.808594 Z M 16.136719 46.964844 C 15.601562 46.53125 14.816406 46.613281 14.382812 47.148438 L 13.085938 48.753906 L 12.542969 48.214844 C 12.054688 47.726562 11.265625 47.726562 10.78125 48.214844 C 10.292969 48.703125 10.292969 49.492188 10.78125 49.980469 L 12.300781 51.5 C 12.828125 52.027344 13.695312 51.976562 14.15625 51.394531 L 16.324219 48.71875 C 16.753906 48.183594 16.671875 47.398438 16.136719 46.964844 Z M 23.410156 48.027344 L 28.429688 48.027344 C 28.417969 47.191406 28.460938 46.363281 28.566406 45.53125 L 23.410156 45.53125 C 22.722656 45.53125 22.164062 46.089844 22.164062 46.78125 C 22.164062 47.46875 22.722656 48.027344 23.410156 48.027344 Z M 38.8125 17.457031 L 23.410156 17.457031 C 22.722656 17.457031 22.164062 18.019531 22.164062 18.707031 C 22.164062 19.394531 22.722656 19.953125 23.410156 19.953125 L 38.8125 19.953125 C 39.5 19.953125 40.058594 19.394531 40.058594 18.707031 C 40.058594 18.019531 39.5 17.457031 38.8125 17.457031 Z M 40.058594 23.699219 C 40.058594 23.007812 39.5 22.449219 38.8125 22.449219 L 23.410156 22.449219 C 22.722656 22.449219 22.164062 23.007812 22.164062 23.699219 C 22.164062 24.386719 22.722656 24.945312 23.410156 24.945312 L 38.8125 24.945312 C 39.5 24.945312 40.058594 24.386719 40.058594 23.699219 Z M 38.828125 31.496094 L 23.410156 31.496094 C 22.722656 31.496094 22.164062 32.054688 22.164062 32.742188 C 22.164062 33.433594 22.722656 33.992188 23.410156 33.992188 L 34.886719 33.992188 C 36.078125 32.996094 37.402344 32.15625 38.828125 31.496094 Z M 32.421875 36.488281 L 23.410156 36.488281 C 22.722656 36.488281 22.164062 37.046875 22.164062 37.734375 C 22.164062 38.425781 22.722656 38.984375 23.410156 38.984375 L 30.722656 38.984375 C 31.222656 38.101562 31.789062 37.269531 32.421875 36.488281 Z M 23.410156 53.019531 L 29.210938 53.019531 C 28.964844 52.210938 28.773438 51.378906 28.640625 50.523438 L 23.410156 50.523438 C 22.722656 50.523438 22.164062 51.082031 22.164062 51.773438 C 22.164062 52.460938 22.722656 53.019531 23.410156 53.019531 Z M 23.410156 53.019531 "/></g></svg>