<svg xmlns="http://www.w3.org/2000/svg" xmlns:xlink="http://www.w3.org/1999/xlink" width="100" zoomAndPan="magnify" viewBox="0 0 75 74.999997" height="100" preserveAspectRatio="xMidYMid meet" version="1.2"><defs><clipPath id="71b32b2eaa"><path d="M 1.21875 0 L 73.96875 0 L 73.96875 75 L 1.21875 75 Z M 1.21875 0 "/></clipPath></defs><g id="ec05b0e7e4"><g clip-rule="nonzero" clip-path="url(#71b32b2eaa)"><path style=" stroke:none;fill-rule:evenodd;fill:#ffffff;fill-opacity:1;" d="M 56.300781 21.550781 C 56.6875 21.039062 57.417969 20.933594 57.929688 21.320312 C 58.445312 21.703125 58.550781 22.433594 58.164062 22.949219 L 55.113281 27.015625 C 54.546875 27.769531 53.6875 27.769531 53.121094 27.015625 L 50.070312 22.949219 C 49.683594 22.433594 49.789062 21.703125 50.300781 21.320312 C 50.816406 20.933594 51.546875 21.039062 51.933594 21.550781 L 52.609375 22.457031 C 52.71875 22.601562 52.949219 22.523438 52.949219 22.34375 L 52.949219 9.597656 C 52.949219 9.496094 52.863281 9.414062 52.761719 9.414062 L 38.859375 9.414062 C 38.214844 9.414062 37.691406 8.890625 37.691406 8.242188 C 37.691406 7.597656 38.214844 7.074219 38.859375 7.074219 L 54.117188 7.074219 C 54.761719 7.074219 55.285156 7.597656 55.285156 8.242188 L 55.285156 22.34375 C 55.285156 22.523438 55.515625 22.601562 55.621094 22.457031 Z M 17.257812 17.011719 L 31.679688 8.6875 C 31.804688 8.617188 31.804688 8.4375 31.679688 8.363281 L 17.257812 0.0390625 C 17.199219 0.00390625 17.132812 0.00390625 17.070312 0.0390625 L 2.652344 8.363281 C 2.527344 8.4375 2.527344 8.617188 2.652344 8.6875 L 17.070312 17.011719 C 17.132812 17.046875 17.199219 17.046875 17.257812 17.011719 Z M 18.335938 19.1875 C 18.335938 19.117188 18.367188 19.058594 18.429688 19.027344 L 32.839844 10.707031 C 32.964844 10.632812 33.121094 10.722656 33.121094 10.867188 L 33.121094 27.519531 C 33.121094 27.589844 33.085938 27.648438 33.027344 27.679688 L 25.144531 32.230469 L 18.613281 36 C 18.488281 36.070312 18.335938 35.980469 18.335938 35.835938 Z M 15.996094 35.835938 C 15.996094 35.980469 15.839844 36.070312 15.714844 36 L 1.304688 27.679688 C 1.246094 27.648438 1.210938 27.589844 1.210938 27.519531 L 1.210938 10.867188 C 1.210938 10.722656 1.367188 10.632812 1.492188 10.707031 L 15.902344 19.027344 C 15.960938 19.058594 15.996094 19.117188 15.996094 19.1875 Z M 38.082031 62.90625 C 38.082031 61.621094 36.519531 60.972656 35.613281 61.882812 C 34.703125 62.792969 35.351562 64.355469 36.636719 64.355469 C 37.4375 64.355469 38.082031 63.707031 38.082031 62.90625 Z M 70.8125 43.609375 C 71.71875 44.515625 73.28125 43.871094 73.28125 42.585938 C 73.28125 41.296875 71.71875 40.652344 70.8125 41.5625 C 70.246094 42.125 70.246094 43.042969 70.8125 43.609375 Z M 70.8125 61.882812 C 69.902344 62.792969 70.546875 64.355469 71.835938 64.355469 C 73.121094 64.355469 73.765625 62.792969 72.859375 61.882812 C 72.292969 61.316406 71.375 61.316406 70.8125 61.882812 Z M 55.527344 69.507812 C 55.453125 69.480469 55.402344 69.414062 55.402344 69.332031 L 55.402344 56.480469 C 55.402344 56.398438 55.453125 56.332031 55.527344 56.304688 C 57.238281 55.683594 58.285156 53.910156 57.960938 52.082031 C 57.949219 52.003906 57.984375 51.929688 58.054688 51.886719 L 69.183594 45.460938 C 69.253906 45.421875 69.335938 45.429688 69.398438 45.480469 C 70.207031 46.164062 70.664062 46.042969 70.664062 46.320312 L 70.664062 59.171875 C 70.664062 59.253906 70.617188 59.320312 70.542969 59.347656 C 68.828125 59.96875 67.78125 61.746094 68.109375 63.570312 C 68.121094 63.652344 68.085938 63.726562 68.015625 63.765625 L 62.453125 66.980469 L 62.449219 66.976562 L 56.886719 70.191406 C 56.648438 70.328125 56.519531 69.871094 55.527344 69.507812 Z M 55.257812 72.042969 C 54.351562 71.136719 52.789062 71.78125 52.789062 73.066406 C 52.789062 74.355469 54.351562 75 55.257812 74.089844 C 55.824219 73.527344 55.824219 72.609375 55.257812 72.042969 Z M 53.210938 51.722656 C 52.304688 52.632812 52.949219 54.191406 54.234375 54.191406 C 55.523438 54.191406 56.167969 52.632812 55.257812 51.722656 C 54.695312 51.15625 53.777344 51.15625 53.210938 51.722656 Z M 50.417969 51.886719 C 50.488281 51.929688 50.523438 52.003906 50.507812 52.082031 C 50.183594 53.910156 51.230469 55.683594 52.945312 56.304688 C 53.019531 56.332031 53.066406 56.398438 53.066406 56.480469 L 53.066406 69.332031 C 53.066406 69.414062 53.019531 69.480469 52.945312 69.507812 C 51.949219 69.871094 51.824219 70.328125 51.585938 70.191406 L 40.453125 63.765625 C 40.382812 63.726562 40.347656 63.652344 40.363281 63.570312 C 40.6875 61.746094 39.640625 59.96875 37.929688 59.347656 C 37.851562 59.320312 37.804688 59.253906 37.804688 59.171875 L 37.804688 46.320312 C 37.804688 46.238281 37.851562 46.171875 37.929688 46.144531 C 38.921875 45.78125 39.046875 45.324219 39.289062 45.460938 Z M 53.210938 33.449219 C 54.121094 34.355469 55.683594 33.710938 55.683594 32.425781 C 55.683594 31.136719 54.121094 30.492188 53.210938 31.402344 C 52.648438 31.964844 52.648438 32.882812 53.210938 33.449219 Z M 40.453125 43.441406 L 51.585938 49.867188 C 51.652344 49.910156 51.738281 49.902344 51.796875 49.851562 C 53.203125 48.664062 55.265625 48.664062 56.671875 49.851562 C 56.734375 49.902344 56.816406 49.910156 56.886719 49.867188 L 68.015625 43.441406 C 68.257812 43.304688 67.921875 42.960938 68.109375 41.917969 C 68.121094 41.839844 68.085938 41.765625 68.015625 41.726562 L 56.886719 35.300781 C 56.816406 35.261719 56.734375 35.269531 56.671875 35.320312 C 55.265625 36.503906 53.203125 36.503906 51.796875 35.320312 C 51.738281 35.269531 51.652344 35.261719 51.585938 35.300781 L 46.019531 38.511719 L 40.453125 41.726562 C 40.214844 41.863281 40.546875 42.207031 40.363281 43.25 C 40.347656 43.328125 40.382812 43.402344 40.453125 43.441406 Z M 36.636719 44.03125 C 37.921875 44.03125 38.570312 42.46875 37.660156 41.5625 C 36.75 40.652344 35.1875 41.296875 35.1875 42.585938 C 35.1875 43.382812 35.835938 44.03125 36.636719 44.03125 Z M 25.0625 60.085938 C 24.546875 59.703125 24.445312 58.972656 24.832031 58.457031 C 25.214844 57.941406 25.945312 57.839844 26.460938 58.222656 L 30.527344 61.273438 C 31.28125 61.839844 31.28125 62.699219 30.527344 63.265625 L 26.460938 66.316406 C 25.945312 66.703125 25.214844 66.601562 24.828125 66.085938 C 24.445312 65.570312 24.546875 64.839844 25.0625 64.457031 L 25.96875 63.777344 C 26.113281 63.667969 26.035156 63.441406 25.855469 63.441406 L 17.027344 63.441406 C 16.382812 63.441406 15.859375 62.917969 15.859375 62.269531 L 15.859375 41.742188 C 15.859375 41.097656 16.382812 40.574219 17.027344 40.574219 C 17.671875 40.574219 18.195312 41.097656 18.195312 41.742188 L 18.195312 60.914062 C 18.195312 61.019531 18.28125 61.101562 18.382812 61.101562 L 25.855469 61.101562 C 26.035156 61.101562 26.113281 60.875 25.96875 60.765625 Z M 25.0625 60.085938 "/></g></g></svg>