<svg xmlns="http://www.w3.org/2000/svg" xmlns:xlink="http://www.w3.org/1999/xlink" width="100" zoomAndPan="magnify" viewBox="0 0 75 74.999997" height="100" preserveAspectRatio="xMidYMid meet" version="1.2"><defs><clipPath id="f902cd6b94"><path d="M 0 0.140625 L 75 0.140625 L 75 75 L 0 75 Z M 0 0.140625 "/></clipPath></defs><g id="3ebefb1fdc"><g clip-rule="nonzero" clip-path="url(#f902cd6b94)"><path style=" stroke:none;fill-rule:evenodd;fill:#ffffff;fill-opacity:1;" d="M 27.839844 64.484375 L 25.996094 59.691406 C 24.992188 59.453125 24.003906 59.160156 23.035156 58.8125 C 24.109375 56.949219 26.980469 51.976562 29.480469 47.644531 C 30.445312 47.835938 31.4375 47.933594 32.457031 47.933594 C 34.332031 47.933594 36.132812 47.597656 37.792969 46.980469 L 28.523438 63.035156 C 28.253906 63.503906 28.023438 63.988281 27.839844 64.484375 Z M 47.777344 32.625 L 47.777344 32.613281 C 47.777344 24.152344 40.917969 17.292969 32.457031 17.292969 C 30.40625 17.292969 28.453125 17.695312 26.664062 18.425781 L 24.027344 14.382812 L 26.421875 12.785156 L 24.296875 5.996094 C 24.859375 5.824219 25.421875 5.671875 25.996094 5.535156 L 28.066406 0.15625 L 36.851562 0.15625 L 38.921875 5.535156 C 41.785156 6.214844 44.523438 7.351562 47.03125 8.898438 L 52.300781 6.554688 L 58.515625 12.769531 L 56.171875 18.039062 C 57.71875 20.546875 58.855469 23.285156 59.535156 26.152344 L 64.914062 28.21875 L 64.914062 37.003906 L 61.601562 38.28125 L 60.464844 36.316406 L 60.464844 36.3125 C 58.746094 33.339844 55.640625 31.542969 52.207031 31.542969 C 50.628906 31.542969 49.117188 31.925781 47.777344 32.625 Z M 20.648438 42.375 C 17.484375 47.855469 13.691406 54.425781 13.691406 54.425781 C 12.253906 54.511719 10.847656 54.929688 9.589844 55.648438 L 6.398438 52.457031 L 8.742188 47.1875 C 7.195312 44.679688 6.0625 41.941406 5.378906 39.074219 L 0 37.003906 L 0 28.21875 L 5.378906 26.152344 C 6.058594 23.285156 7.195312 20.546875 8.742188 18.039062 L 6.398438 12.769531 L 12.613281 6.554688 L 17.882812 8.898438 C 18.144531 8.738281 18.40625 8.582031 18.667969 8.429688 L 21.367188 11.339844 L 18.167969 13.496094 L 23.015625 20.546875 C 19.4375 23.351562 17.136719 27.710938 17.136719 32.613281 C 17.136719 36.324219 18.453125 39.726562 20.648438 42.375 Z M 58.308594 37.558594 L 73.738281 64.277344 C 75.007812 66.472656 75.007812 69.128906 73.738281 71.324219 C 72.46875 73.519531 70.171875 74.84375 67.632812 74.84375 L 36.78125 74.84375 C 34.242188 74.84375 31.949219 73.519531 30.679688 71.324219 C 29.410156 69.128906 29.410156 66.472656 30.679688 64.277344 L 46.105469 37.558594 C 47.375 35.359375 49.671875 34.035156 52.207031 34.035156 C 54.742188 34.035156 57.039062 35.359375 58.308594 37.558594 Z M 55.894531 40.375 C 55.121094 39.03125 53.757812 38.242188 52.207031 38.242188 C 50.664062 38.242188 49.292969 39.03125 48.519531 40.375 L 34.734375 64.25 C 33.964844 65.589844 33.964844 67.167969 34.734375 68.507812 C 35.507812 69.847656 36.878906 70.636719 38.421875 70.636719 L 65.992188 70.636719 C 67.539062 70.636719 68.90625 69.847656 69.679688 68.511719 L 69.679688 68.507812 C 70.453125 67.167969 70.453125 65.589844 69.683594 64.25 Z M 53.738281 41.617188 L 67.523438 65.492188 C 67.847656 66.050781 67.847656 66.703125 67.527344 67.261719 C 67.203125 67.816406 66.636719 68.148438 65.992188 68.148438 L 38.421875 68.148438 C 37.78125 68.148438 37.214844 67.820312 36.890625 67.265625 C 36.570312 66.707031 36.570312 66.050781 36.890625 65.492188 L 50.675781 41.617188 C 50.996094 41.058594 51.566406 40.734375 52.207031 40.734375 C 52.851562 40.734375 53.417969 41.058594 53.738281 41.617188 Z M 52.207031 59.6875 C 53.019531 59.6875 53.683594 59.046875 53.714844 58.234375 L 54.09375 47.695312 C 54.109375 47.273438 53.96875 46.902344 53.671875 46.59375 C 53.378906 46.289062 53.011719 46.136719 52.585938 46.136719 L 51.828125 46.136719 C 51.402344 46.136719 51.039062 46.289062 50.742188 46.59375 C 50.449219 46.902344 50.308594 47.273438 50.320312 47.695312 L 50.703125 58.234375 C 50.734375 59.046875 51.394531 59.6875 52.207031 59.6875 Z M 52.207031 65.5625 C 53.269531 65.5625 54.136719 64.699219 54.136719 63.636719 C 54.136719 62.574219 53.269531 61.707031 52.207031 61.707031 C 51.144531 61.707031 50.277344 62.574219 50.277344 63.636719 C 50.277344 64.699219 51.144531 65.5625 52.207031 65.5625 Z M 15.109375 56.949219 L 27.75 35.050781 C 26.132812 32.921875 25.851562 29.9375 27.273438 27.476562 C 28.609375 25.160156 31.089844 23.921875 33.589844 24.054688 L 30.140625 30.027344 L 31.929688 33.121094 L 35.503906 33.121094 L 38.953125 27.152344 C 40.316406 29.246094 40.484375 32.015625 39.148438 34.332031 C 37.726562 36.792969 35.003906 38.042969 32.347656 37.703125 L 19.703125 59.601562 C 21.324219 61.738281 21.601562 64.71875 20.179688 67.179688 C 18.84375 69.496094 16.363281 70.738281 13.863281 70.601562 L 17.3125 64.632812 L 15.523438 61.535156 L 11.949219 61.535156 L 8.5 67.507812 C 7.136719 65.410156 6.96875 62.640625 8.304688 60.324219 C 9.726562 57.863281 12.453125 56.617188 15.109375 56.949219 Z M 15.109375 56.949219 "/></g></g></svg>