<svg xmlns="http://www.w3.org/2000/svg" xmlns:xlink="http://www.w3.org/1999/xlink" width="100" zoomAndPan="magnify" viewBox="0 0 75 74.999997" height="100" preserveAspectRatio="xMidYMid meet" version="1.2"><defs><clipPath id="518114ecb4"><path d="M 0.65625 0 L 21 0 L 21 21 L 0.65625 21 Z M 0.65625 0 "/></clipPath><clipPath id="14fa4ed024"><path d="M 0.65625 39 L 21 39 L 21 61 L 0.65625 61 Z M 0.65625 39 "/></clipPath><clipPath id="3a96db73e2"><path d="M 53 8 L 74.15625 8 L 74.15625 38 L 53 38 Z M 53 8 "/></clipPath><clipPath id="ec8496c49f"><path d="M 48 47 L 74.15625 47 L 74.15625 74 L 48 74 Z M 48 47 "/></clipPath></defs><g id="6ddc01ce35"><g clip-rule="nonzero" clip-path="url(#518114ecb4)"><path style=" stroke:none;fill-rule:nonzero;fill:#ffffff;fill-opacity:1;" d="M 5.71875 0.128906 L 15.679688 0.128906 C 16.011719 0.128906 16.34375 0.160156 16.667969 0.226562 C 16.992188 0.292969 17.3125 0.386719 17.617188 0.515625 C 17.925781 0.640625 18.214844 0.796875 18.492188 0.984375 C 18.769531 1.167969 19.023438 1.378906 19.261719 1.613281 C 19.496094 1.847656 19.703125 2.101562 19.890625 2.378906 C 20.074219 2.65625 20.230469 2.949219 20.355469 3.253906 C 20.484375 3.5625 20.582031 3.878906 20.644531 4.203125 C 20.710938 4.53125 20.742188 4.859375 20.742188 5.191406 L 20.742188 15.152344 C 20.742188 15.484375 20.710938 15.816406 20.644531 16.140625 C 20.582031 16.46875 20.484375 16.785156 20.355469 17.089844 C 20.230469 17.398438 20.074219 17.691406 19.890625 17.964844 C 19.703125 18.242188 19.496094 18.5 19.261719 18.734375 C 19.023438 18.96875 18.769531 19.179688 18.492188 19.363281 C 18.214844 19.546875 17.925781 19.703125 17.617188 19.832031 C 17.3125 19.957031 16.992188 20.054688 16.667969 20.117188 C 16.34375 20.183594 16.011719 20.214844 15.679688 20.214844 L 5.71875 20.214844 C 5.386719 20.214844 5.058594 20.183594 4.730469 20.117188 C 4.40625 20.054688 4.089844 19.957031 3.78125 19.832031 C 3.472656 19.703125 3.183594 19.546875 2.90625 19.363281 C 2.628906 19.179688 2.375 18.96875 2.140625 18.734375 C 1.902344 18.5 1.695312 18.242188 1.507812 17.964844 C 1.324219 17.691406 1.167969 17.398438 1.042969 17.089844 C 0.914062 16.785156 0.820312 16.46875 0.753906 16.140625 C 0.6875 15.816406 0.65625 15.484375 0.65625 15.152344 L 0.65625 5.191406 C 0.65625 4.859375 0.6875 4.53125 0.753906 4.203125 C 0.820312 3.878906 0.914062 3.5625 1.042969 3.253906 C 1.167969 2.949219 1.324219 2.65625 1.507812 2.378906 C 1.695312 2.101562 1.902344 1.847656 2.140625 1.613281 C 2.375 1.378906 2.628906 1.167969 2.90625 0.984375 C 3.183594 0.796875 3.472656 0.640625 3.78125 0.515625 C 4.089844 0.386719 4.40625 0.292969 4.730469 0.226562 C 5.058594 0.160156 5.386719 0.128906 5.71875 0.128906 Z M 5.71875 0.128906 "/></g><path style=" stroke:none;fill-rule:nonzero;fill:#ffffff;fill-opacity:1;" d="M 61.21875 20.210938 L 32.425781 20.210938 C 32.09375 20.210938 31.765625 20.175781 31.4375 20.113281 C 31.113281 20.046875 30.796875 19.949219 30.488281 19.824219 C 30.183594 19.695312 29.890625 19.539062 29.617188 19.355469 C 29.339844 19.171875 29.082031 18.960938 28.847656 18.726562 C 28.613281 18.492188 28.402344 18.234375 28.21875 17.957031 C 28.035156 17.683594 27.878906 17.390625 27.75 17.082031 C 27.625 16.777344 27.527344 16.460938 27.460938 16.132812 C 27.398438 15.808594 27.363281 15.480469 27.363281 15.148438 L 27.363281 5.191406 C 27.363281 4.859375 27.398438 4.53125 27.460938 4.203125 C 27.527344 3.878906 27.625 3.5625 27.75 3.253906 C 27.878906 2.949219 28.035156 2.65625 28.21875 2.378906 C 28.402344 2.105469 28.613281 1.847656 28.847656 1.613281 C 29.082031 1.378906 29.339844 1.167969 29.617188 0.984375 C 29.890625 0.800781 30.183594 0.644531 30.488281 0.515625 C 30.796875 0.390625 31.113281 0.292969 31.4375 0.226562 C 31.765625 0.164062 32.09375 0.128906 32.425781 0.128906 L 61.21875 0.128906 C 61.550781 0.128906 61.878906 0.164062 62.207031 0.226562 C 62.53125 0.292969 62.847656 0.390625 63.15625 0.515625 C 63.460938 0.644531 63.753906 0.800781 64.03125 0.984375 C 64.304688 1.167969 64.5625 1.378906 64.796875 1.613281 C 65.03125 1.847656 65.242188 2.105469 65.425781 2.378906 C 65.609375 2.65625 65.765625 2.949219 65.894531 3.253906 C 66.023438 3.5625 66.117188 3.878906 66.183594 4.203125 C 66.25 4.53125 66.28125 4.859375 66.28125 5.191406 L 66.28125 15.152344 C 66.28125 15.484375 66.246094 15.8125 66.183594 16.140625 C 66.117188 16.464844 66.019531 16.78125 65.894531 17.085938 C 65.765625 17.394531 65.609375 17.683594 65.425781 17.960938 C 65.238281 18.238281 65.03125 18.492188 64.796875 18.726562 C 64.558594 18.960938 64.304688 19.171875 64.027344 19.355469 C 63.753906 19.539062 63.460938 19.695312 63.152344 19.824219 C 62.847656 19.953125 62.53125 20.046875 62.207031 20.113281 C 61.878906 20.175781 61.550781 20.210938 61.21875 20.210938 Z M 32.425781 2.753906 C 32.105469 2.753906 31.792969 2.816406 31.496094 2.941406 C 31.195312 3.066406 30.933594 3.242188 30.703125 3.46875 C 30.476562 3.699219 30.300781 3.960938 30.175781 4.257812 C 30.050781 4.558594 29.988281 4.867188 29.988281 5.191406 L 29.988281 15.152344 C 29.988281 15.476562 30.050781 15.785156 30.175781 16.082031 C 30.300781 16.382812 30.476562 16.644531 30.707031 16.871094 C 30.933594 17.101562 31.195312 17.277344 31.496094 17.398438 C 31.792969 17.523438 32.105469 17.585938 32.425781 17.585938 L 61.21875 17.585938 C 61.542969 17.585938 61.851562 17.523438 62.148438 17.398438 C 62.449219 17.277344 62.710938 17.101562 62.941406 16.871094 C 63.167969 16.644531 63.34375 16.382812 63.46875 16.082031 C 63.59375 15.785156 63.65625 15.476562 63.65625 15.152344 L 63.65625 5.191406 C 63.65625 4.867188 63.59375 4.558594 63.46875 4.257812 C 63.347656 3.960938 63.171875 3.699219 62.941406 3.46875 C 62.714844 3.242188 62.449219 3.066406 62.152344 2.941406 C 61.851562 2.816406 61.542969 2.753906 61.21875 2.753906 Z M 32.425781 2.753906 "/><path style=" stroke:none;fill-rule:nonzero;fill:#ffffff;fill-opacity:1;" d="M 43.109375 49.296875 C 42.265625 49.296875 41.425781 49.214844 40.597656 49.050781 C 39.765625 48.882812 38.960938 48.640625 38.179688 48.316406 C 37.398438 47.992188 36.65625 47.59375 35.949219 47.125 C 35.246094 46.65625 34.597656 46.121094 34 45.523438 C 33.398438 44.925781 32.867188 44.273438 32.394531 43.570312 C 31.925781 42.867188 31.527344 42.125 31.203125 41.34375 C 30.882812 40.558594 30.636719 39.753906 30.472656 38.925781 C 30.308594 38.09375 30.222656 37.257812 30.222656 36.410156 C 30.222656 35.5625 30.308594 34.726562 30.472656 33.898438 C 30.636719 33.066406 30.882812 32.261719 31.207031 31.480469 C 31.527344 30.699219 31.925781 29.953125 32.394531 29.25 C 32.867188 28.546875 33.402344 27.898438 34 27.296875 C 34.597656 26.699219 35.25 26.167969 35.953125 25.695312 C 36.65625 25.226562 37.398438 24.828125 38.179688 24.503906 C 38.960938 24.183594 39.765625 23.9375 40.597656 23.773438 C 41.425781 23.605469 42.265625 23.523438 43.109375 23.523438 C 43.957031 23.523438 44.796875 23.609375 45.625 23.773438 C 46.457031 23.9375 47.261719 24.183594 48.042969 24.507812 C 48.824219 24.828125 49.566406 25.226562 50.269531 25.695312 C 50.972656 26.167969 51.625 26.703125 52.222656 27.300781 C 52.820312 27.898438 53.355469 28.550781 53.824219 29.253906 C 54.296875 29.957031 54.691406 30.699219 55.015625 31.480469 C 55.339844 32.261719 55.585938 33.070312 55.75 33.898438 C 55.914062 34.726562 55.996094 35.566406 55.996094 36.414062 C 55.996094 37.257812 55.914062 38.097656 55.746094 38.925781 C 55.582031 39.753906 55.335938 40.558594 55.011719 41.339844 C 54.6875 42.121094 54.289062 42.863281 53.820312 43.566406 C 53.351562 44.269531 52.816406 44.921875 52.21875 45.519531 C 51.621094 46.117188 50.96875 46.652344 50.265625 47.121094 C 49.5625 47.589844 48.820312 47.988281 48.039062 48.3125 C 47.257812 48.636719 46.453125 48.882812 45.625 49.046875 C 44.792969 49.214844 43.957031 49.296875 43.109375 49.296875 Z M 43.109375 26.152344 C 42.4375 26.152344 41.769531 26.21875 41.109375 26.347656 C 40.449219 26.480469 39.804688 26.675781 39.183594 26.933594 C 38.5625 27.191406 37.96875 27.507812 37.410156 27.878906 C 36.847656 28.253906 36.332031 28.679688 35.855469 29.15625 C 35.378906 29.632812 34.953125 30.152344 34.578125 30.710938 C 34.203125 31.273438 33.886719 31.863281 33.628906 32.484375 C 33.371094 33.109375 33.179688 33.75 33.046875 34.410156 C 32.914062 35.070312 32.847656 35.738281 32.847656 36.414062 C 32.847656 37.085938 32.914062 37.753906 33.046875 38.414062 C 33.179688 39.074219 33.371094 39.714844 33.628906 40.339844 C 33.886719 40.960938 34.203125 41.554688 34.578125 42.113281 C 34.953125 42.671875 35.378906 43.191406 35.855469 43.667969 C 36.332031 44.144531 36.847656 44.570312 37.410156 44.945312 C 37.96875 45.320312 38.5625 45.632812 39.183594 45.890625 C 39.804688 46.148438 40.449219 46.34375 41.109375 46.476562 C 41.769531 46.609375 42.4375 46.671875 43.109375 46.671875 C 43.785156 46.671875 44.453125 46.609375 45.113281 46.476562 C 45.773438 46.34375 46.414062 46.148438 47.039062 45.890625 C 47.660156 45.632812 48.25 45.320312 48.8125 44.945312 C 49.371094 44.570312 49.890625 44.144531 50.367188 43.667969 C 50.84375 43.191406 51.269531 42.671875 51.640625 42.113281 C 52.015625 41.554688 52.332031 40.960938 52.589844 40.339844 C 52.847656 39.714844 53.042969 39.074219 53.175781 38.414062 C 53.304688 37.753906 53.371094 37.085938 53.371094 36.414062 C 53.371094 35.738281 53.304688 35.070312 53.171875 34.410156 C 53.039062 33.75 52.84375 33.109375 52.585938 32.488281 C 52.328125 31.863281 52.011719 31.273438 51.640625 30.714844 C 51.265625 30.152344 50.839844 29.636719 50.363281 29.160156 C 49.886719 28.683594 49.367188 28.257812 48.808594 27.882812 C 48.25 27.507812 47.65625 27.191406 47.035156 26.933594 C 46.414062 26.675781 45.773438 26.480469 45.113281 26.351562 C 44.449219 26.21875 43.785156 26.152344 43.109375 26.152344 Z M 43.109375 26.152344 "/><path style=" stroke:none;fill-rule:nonzero;fill:#ffffff;fill-opacity:1;" d="M 43.109375 49.296875 C 42.265625 49.296875 41.425781 49.214844 40.597656 49.050781 C 39.765625 48.882812 38.960938 48.640625 38.179688 48.316406 C 37.398438 47.992188 36.65625 47.59375 35.949219 47.125 C 35.246094 46.65625 34.597656 46.121094 34 45.523438 C 33.398438 44.925781 32.867188 44.273438 32.394531 43.570312 C 31.925781 42.867188 31.527344 42.125 31.203125 41.34375 C 30.882812 40.558594 30.636719 39.753906 30.472656 38.925781 C 30.308594 38.09375 30.222656 37.257812 30.222656 36.410156 C 30.222656 35.5625 30.308594 34.726562 30.472656 33.898438 C 30.636719 33.066406 30.882812 32.261719 31.207031 31.480469 C 31.527344 30.699219 31.925781 29.953125 32.394531 29.25 C 32.867188 28.546875 33.402344 27.898438 34 27.296875 C 34.597656 26.699219 35.25 26.167969 35.953125 25.695312 C 36.65625 25.226562 37.398438 24.828125 38.179688 24.503906 C 38.960938 24.183594 39.765625 23.9375 40.597656 23.773438 C 41.425781 23.605469 42.265625 23.523438 43.109375 23.523438 C 43.957031 23.523438 44.796875 23.609375 45.625 23.773438 C 46.457031 23.9375 47.261719 24.183594 48.042969 24.507812 C 48.824219 24.828125 49.566406 25.226562 50.269531 25.695312 C 50.972656 26.167969 51.625 26.703125 52.222656 27.300781 C 52.820312 27.898438 53.355469 28.550781 53.824219 29.253906 C 54.296875 29.957031 54.691406 30.699219 55.015625 31.480469 C 55.339844 32.261719 55.585938 33.070312 55.75 33.898438 C 55.914062 34.726562 55.996094 35.566406 55.996094 36.414062 C 55.996094 37.257812 55.914062 38.097656 55.746094 38.925781 C 55.582031 39.753906 55.335938 40.558594 55.011719 41.339844 C 54.6875 42.121094 54.289062 42.863281 53.820312 43.566406 C 53.351562 44.269531 52.816406 44.921875 52.21875 45.519531 C 51.621094 46.117188 50.96875 46.652344 50.265625 47.121094 C 49.5625 47.589844 48.820312 47.988281 48.039062 48.3125 C 47.257812 48.636719 46.453125 48.882812 45.625 49.046875 C 44.792969 49.214844 43.957031 49.296875 43.109375 49.296875 Z M 43.109375 26.152344 C 42.4375 26.152344 41.769531 26.21875 41.109375 26.347656 C 40.449219 26.480469 39.804688 26.675781 39.183594 26.933594 C 38.5625 27.191406 37.96875 27.507812 37.410156 27.878906 C 36.847656 28.253906 36.332031 28.679688 35.855469 29.15625 C 35.378906 29.632812 34.953125 30.152344 34.578125 30.710938 C 34.203125 31.273438 33.886719 31.863281 33.628906 32.484375 C 33.371094 33.109375 33.179688 33.75 33.046875 34.410156 C 32.914062 35.070312 32.847656 35.738281 32.847656 36.414062 C 32.847656 37.085938 32.914062 37.753906 33.046875 38.414062 C 33.179688 39.074219 33.371094 39.714844 33.628906 40.339844 C 33.886719 40.960938 34.203125 41.554688 34.578125 42.113281 C 34.953125 42.671875 35.378906 43.191406 35.855469 43.667969 C 36.332031 44.144531 36.847656 44.570312 37.410156 44.945312 C 37.96875 45.320312 38.5625 45.632812 39.183594 45.890625 C 39.804688 46.148438 40.449219 46.34375 41.109375 46.476562 C 41.769531 46.609375 42.4375 46.671875 43.109375 46.671875 C 43.785156 46.671875 44.453125 46.609375 45.113281 46.476562 C 45.773438 46.34375 46.414062 46.148438 47.039062 45.890625 C 47.660156 45.632812 48.25 45.320312 48.8125 44.945312 C 49.371094 44.570312 49.890625 44.144531 50.367188 43.667969 C 50.84375 43.191406 51.269531 42.671875 51.640625 42.113281 C 52.015625 41.554688 52.332031 40.960938 52.589844 40.339844 C 52.847656 39.714844 53.042969 39.074219 53.175781 38.414062 C 53.304688 37.753906 53.371094 37.085938 53.371094 36.414062 C 53.371094 35.738281 53.304688 35.070312 53.171875 34.410156 C 53.039062 33.75 52.84375 33.109375 52.585938 32.488281 C 52.328125 31.863281 52.011719 31.273438 51.640625 30.714844 C 51.265625 30.152344 50.839844 29.636719 50.363281 29.160156 C 49.886719 28.683594 49.367188 28.257812 48.808594 27.882812 C 48.25 27.507812 47.65625 27.191406 47.035156 26.933594 C 46.414062 26.675781 45.773438 26.480469 45.113281 26.351562 C 44.449219 26.21875 43.785156 26.152344 43.109375 26.152344 Z M 43.109375 26.152344 "/><g clip-rule="nonzero" clip-path="url(#14fa4ed024)"><path style=" stroke:none;fill-rule:nonzero;fill:#ffffff;fill-opacity:1;" d="M 15.488281 60.019531 L 5.855469 60.019531 C 5.515625 60.015625 5.175781 59.984375 4.84375 59.917969 C 4.507812 59.851562 4.183594 59.75 3.867188 59.621094 C 3.550781 59.488281 3.253906 59.328125 2.96875 59.140625 C 2.683594 58.949219 2.421875 58.734375 2.179688 58.492188 C 1.941406 58.25 1.722656 57.988281 1.535156 57.707031 C 1.34375 57.421875 1.183594 57.121094 1.054688 56.808594 C 0.921875 56.492188 0.824219 56.167969 0.757812 55.832031 C 0.691406 55.496094 0.65625 55.160156 0.65625 54.816406 L 0.65625 45.191406 C 0.65625 44.851562 0.691406 44.511719 0.757812 44.175781 C 0.824219 43.84375 0.921875 43.519531 1.054688 43.203125 C 1.183594 42.886719 1.34375 42.585938 1.535156 42.304688 C 1.722656 42.019531 1.941406 41.757812 2.179688 41.515625 C 2.421875 41.273438 2.683594 41.058594 2.96875 40.871094 C 3.253906 40.679688 3.550781 40.519531 3.867188 40.390625 C 4.183594 40.257812 4.507812 40.160156 4.84375 40.09375 C 5.175781 40.027344 5.515625 39.992188 5.855469 39.992188 L 15.488281 39.992188 C 15.828125 39.992188 16.167969 40.027344 16.5 40.09375 C 16.835938 40.160156 17.160156 40.257812 17.476562 40.390625 C 17.792969 40.519531 18.09375 40.679688 18.375 40.871094 C 18.660156 41.058594 18.921875 41.273438 19.164062 41.515625 C 19.40625 41.757812 19.621094 42.019531 19.808594 42.304688 C 20 42.585938 20.160156 42.886719 20.292969 43.203125 C 20.421875 43.519531 20.519531 43.84375 20.589844 44.175781 C 20.65625 44.511719 20.6875 44.851562 20.6875 45.191406 L 20.6875 54.816406 C 20.6875 55.160156 20.65625 55.496094 20.589844 55.832031 C 20.519531 56.167969 20.421875 56.492188 20.292969 56.808594 C 20.160156 57.121094 20 57.421875 19.808594 57.707031 C 19.621094 57.988281 19.40625 58.25 19.164062 58.492188 C 18.921875 58.734375 18.660156 58.949219 18.375 59.140625 C 18.09375 59.328125 17.792969 59.488281 17.476562 59.621094 C 17.160156 59.75 16.835938 59.851562 16.5 59.917969 C 16.167969 59.984375 15.828125 60.015625 15.488281 60.019531 Z M 5.855469 42.617188 C 5.515625 42.617188 5.1875 42.683594 4.871094 42.8125 C 4.554688 42.945312 4.277344 43.128906 4.035156 43.371094 C 3.792969 43.613281 3.609375 43.890625 3.476562 44.207031 C 3.347656 44.523438 3.28125 44.851562 3.28125 45.191406 L 3.28125 54.816406 C 3.28125 55.160156 3.347656 55.488281 3.476562 55.800781 C 3.609375 56.117188 3.792969 56.394531 4.035156 56.636719 C 4.277344 56.878906 4.554688 57.066406 4.871094 57.195312 C 5.1875 57.328125 5.515625 57.390625 5.855469 57.394531 L 15.488281 57.394531 C 15.828125 57.390625 16.15625 57.328125 16.472656 57.195312 C 16.789062 57.066406 17.066406 56.878906 17.308594 56.636719 C 17.550781 56.394531 17.734375 56.117188 17.867188 55.800781 C 17.996094 55.488281 18.0625 55.160156 18.0625 54.816406 L 18.0625 45.191406 C 18.0625 44.851562 17.996094 44.523438 17.867188 44.207031 C 17.734375 43.890625 17.550781 43.613281 17.308594 43.371094 C 17.066406 43.128906 16.789062 42.945312 16.472656 42.8125 C 16.15625 42.683594 15.828125 42.617188 15.488281 42.617188 Z M 5.855469 42.617188 "/></g><path style=" stroke:none;fill-rule:nonzero;fill:#ffffff;fill-opacity:1;" d="M 28.675781 11.484375 L 19.425781 11.484375 C 19.25 11.484375 19.082031 11.453125 18.921875 11.386719 C 18.761719 11.320312 18.621094 11.222656 18.496094 11.101562 C 18.375 10.976562 18.277344 10.835938 18.210938 10.675781 C 18.144531 10.515625 18.113281 10.347656 18.113281 10.171875 C 18.113281 10 18.144531 9.832031 18.210938 9.671875 C 18.277344 9.507812 18.375 9.367188 18.496094 9.246094 C 18.621094 9.121094 18.761719 9.027344 18.921875 8.960938 C 19.082031 8.894531 19.25 8.859375 19.425781 8.859375 L 28.671875 8.859375 C 28.84375 8.859375 29.011719 8.894531 29.175781 8.960938 C 29.335938 9.027344 29.476562 9.121094 29.601562 9.246094 C 29.722656 9.367188 29.816406 9.507812 29.882812 9.671875 C 29.949219 9.832031 29.984375 10 29.984375 10.171875 C 29.984375 10.347656 29.949219 10.515625 29.882812 10.675781 C 29.816406 10.835938 29.722656 10.976562 29.601562 11.101562 C 29.476562 11.222656 29.335938 11.320312 29.175781 11.386719 C 29.011719 11.453125 28.84375 11.484375 28.671875 11.484375 Z M 28.675781 11.484375 "/><g clip-rule="nonzero" clip-path="url(#3a96db73e2)"><path style=" stroke:none;fill-rule:nonzero;fill:#ffffff;fill-opacity:1;" d="M 69.546875 37.726562 L 54.683594 37.726562 C 54.511719 37.726562 54.34375 37.691406 54.183594 37.625 C 54.019531 37.558594 53.878906 37.464844 53.757812 37.339844 C 53.632812 37.21875 53.539062 37.074219 53.472656 36.914062 C 53.40625 36.753906 53.371094 36.585938 53.371094 36.414062 C 53.371094 36.238281 53.40625 36.070312 53.472656 35.910156 C 53.539062 35.75 53.632812 35.605469 53.757812 35.484375 C 53.878906 35.359375 54.019531 35.265625 54.183594 35.199219 C 54.34375 35.132812 54.511719 35.101562 54.683594 35.101562 L 69.546875 35.101562 C 69.808594 35.097656 70.0625 35.046875 70.304688 34.949219 C 70.546875 34.847656 70.761719 34.703125 70.949219 34.515625 C 71.136719 34.332031 71.277344 34.117188 71.378906 33.871094 C 71.480469 33.628906 71.53125 33.375 71.53125 33.113281 L 71.53125 13.472656 C 71.53125 13.207031 71.480469 12.953125 71.378906 12.710938 C 71.277344 12.46875 71.136719 12.253906 70.949219 12.066406 C 70.761719 11.882812 70.546875 11.738281 70.304688 11.636719 C 70.0625 11.535156 69.808594 11.484375 69.546875 11.484375 L 64.96875 11.484375 C 64.792969 11.484375 64.628906 11.453125 64.464844 11.386719 C 64.304688 11.320312 64.164062 11.222656 64.039062 11.101562 C 63.917969 10.976562 63.824219 10.835938 63.757812 10.675781 C 63.691406 10.515625 63.65625 10.347656 63.65625 10.171875 C 63.65625 10 63.691406 9.832031 63.757812 9.671875 C 63.824219 9.507812 63.917969 9.367188 64.039062 9.246094 C 64.164062 9.121094 64.304688 9.027344 64.464844 8.960938 C 64.628906 8.894531 64.792969 8.859375 64.96875 8.859375 L 69.546875 8.859375 C 69.847656 8.859375 70.148438 8.890625 70.445312 8.949219 C 70.742188 9.007812 71.03125 9.097656 71.308594 9.210938 C 71.589844 9.328125 71.855469 9.472656 72.105469 9.640625 C 72.355469 9.808594 72.589844 10 72.804688 10.210938 C 73.019531 10.425781 73.210938 10.660156 73.378906 10.910156 C 73.546875 11.164062 73.6875 11.429688 73.804688 11.707031 C 73.917969 11.988281 74.007812 12.273438 74.066406 12.570312 C 74.125 12.867188 74.15625 13.167969 74.15625 13.472656 L 74.15625 33.113281 C 74.15625 33.414062 74.125 33.714844 74.066406 34.011719 C 74.007812 34.308594 73.917969 34.597656 73.804688 34.875 C 73.6875 35.15625 73.546875 35.421875 73.378906 35.671875 C 73.210938 35.925781 73.019531 36.15625 72.804688 36.371094 C 72.589844 36.585938 72.359375 36.777344 72.105469 36.945312 C 71.855469 37.113281 71.589844 37.257812 71.308594 37.371094 C 71.03125 37.488281 70.742188 37.574219 70.445312 37.636719 C 70.148438 37.695312 69.847656 37.722656 69.546875 37.726562 Z M 69.546875 37.726562 "/></g><path style=" stroke:none;fill-rule:nonzero;fill:#ffffff;fill-opacity:1;" d="M 10.699219 42.617188 C 10.527344 42.617188 10.359375 42.582031 10.195312 42.515625 C 10.035156 42.449219 9.894531 42.355469 9.769531 42.230469 C 9.648438 42.109375 9.554688 41.96875 9.488281 41.804688 C 9.421875 41.644531 9.386719 41.476562 9.386719 41.304688 L 9.386719 39.835938 C 9.386719 39.523438 9.417969 39.214844 9.480469 38.910156 C 9.539062 38.605469 9.628906 38.3125 9.75 38.023438 C 9.867188 37.738281 10.015625 37.464844 10.1875 37.207031 C 10.359375 36.945312 10.554688 36.707031 10.777344 36.488281 C 10.996094 36.269531 11.234375 36.070312 11.492188 35.898438 C 11.753906 35.726562 12.023438 35.582031 12.3125 35.460938 C 12.597656 35.34375 12.894531 35.253906 13.199219 35.191406 C 13.503906 35.128906 13.8125 35.101562 14.125 35.101562 L 31.539062 35.101562 C 31.710938 35.097656 31.878906 35.132812 32.039062 35.199219 C 32.203125 35.265625 32.34375 35.359375 32.46875 35.484375 C 32.589844 35.605469 32.6875 35.75 32.753906 35.910156 C 32.820312 36.070312 32.851562 36.238281 32.851562 36.414062 C 32.851562 36.585938 32.820312 36.753906 32.753906 36.914062 C 32.6875 37.074219 32.589844 37.21875 32.46875 37.339844 C 32.34375 37.464844 32.203125 37.558594 32.039062 37.625 C 31.878906 37.691406 31.710938 37.726562 31.539062 37.726562 L 14.125 37.726562 C 13.84375 37.726562 13.574219 37.777344 13.316406 37.886719 C 13.058594 37.992188 12.828125 38.144531 12.632812 38.34375 C 12.433594 38.542969 12.28125 38.769531 12.171875 39.027344 C 12.066406 39.285156 12.011719 39.554688 12.011719 39.835938 L 12.011719 41.304688 C 12.011719 41.476562 11.980469 41.644531 11.910156 41.804688 C 11.84375 41.96875 11.75 42.109375 11.628906 42.230469 C 11.503906 42.355469 11.363281 42.449219 11.203125 42.515625 C 11.039062 42.582031 10.875 42.617188 10.699219 42.617188 Z M 10.699219 42.617188 "/><path style=" stroke:none;fill-rule:nonzero;fill:#ffffff;fill-opacity:1;" d="M 43.96875 65.753906 L 14.421875 65.753906 C 14.089844 65.753906 13.761719 65.722656 13.4375 65.65625 C 13.113281 65.59375 12.800781 65.496094 12.496094 65.371094 C 12.191406 65.242188 11.898438 65.089844 11.625 64.90625 C 11.351562 64.722656 11.097656 64.511719 10.863281 64.277344 C 10.628906 64.046875 10.421875 63.789062 10.238281 63.515625 C 10.054688 63.242188 9.898438 62.953125 9.773438 62.648438 C 9.644531 62.339844 9.550781 62.027344 9.484375 61.703125 C 9.417969 61.378906 9.386719 61.050781 9.386719 60.722656 L 9.386719 58.707031 C 9.386719 58.53125 9.421875 58.363281 9.488281 58.203125 C 9.554688 58.042969 9.648438 57.898438 9.769531 57.777344 C 9.894531 57.652344 10.035156 57.558594 10.195312 57.492188 C 10.359375 57.425781 10.527344 57.394531 10.699219 57.394531 C 10.875 57.394531 11.039062 57.425781 11.203125 57.492188 C 11.363281 57.558594 11.503906 57.652344 11.628906 57.777344 C 11.75 57.898438 11.84375 58.042969 11.910156 58.203125 C 11.980469 58.363281 12.011719 58.53125 12.011719 58.707031 L 12.011719 60.722656 C 12.011719 61.039062 12.074219 61.347656 12.195312 61.640625 C 12.320312 61.9375 12.492188 62.199219 12.71875 62.421875 C 12.945312 62.648438 13.203125 62.824219 13.5 62.945312 C 13.792969 63.066406 14.101562 63.128906 14.421875 63.128906 L 43.96875 63.128906 C 44.144531 63.128906 44.308594 63.164062 44.472656 63.230469 C 44.632812 63.296875 44.773438 63.390625 44.898438 63.515625 C 45.019531 63.636719 45.113281 63.777344 45.179688 63.941406 C 45.246094 64.101562 45.28125 64.269531 45.28125 64.441406 C 45.28125 64.617188 45.246094 64.785156 45.179688 64.945312 C 45.113281 65.105469 45.019531 65.246094 44.898438 65.371094 C 44.773438 65.492188 44.632812 65.589844 44.472656 65.65625 C 44.308594 65.722656 44.144531 65.753906 43.96875 65.753906 Z M 43.96875 65.753906 "/><path style=" stroke:none;fill-rule:nonzero;fill:#ffffff;fill-opacity:1;" d="M 57.15625 8.671875 L 36.488281 8.671875 C 36.3125 8.671875 36.144531 8.640625 35.984375 8.574219 C 35.824219 8.507812 35.683594 8.410156 35.558594 8.289062 C 35.4375 8.164062 35.339844 8.023438 35.273438 7.863281 C 35.207031 7.703125 35.175781 7.535156 35.175781 7.359375 C 35.175781 7.1875 35.207031 7.019531 35.273438 6.859375 C 35.339844 6.695312 35.4375 6.554688 35.558594 6.433594 C 35.683594 6.308594 35.824219 6.214844 35.984375 6.148438 C 36.144531 6.082031 36.3125 6.046875 36.488281 6.046875 L 57.160156 6.046875 C 57.332031 6.046875 57.5 6.082031 57.660156 6.148438 C 57.824219 6.214844 57.964844 6.308594 58.085938 6.433594 C 58.210938 6.554688 58.304688 6.695312 58.371094 6.859375 C 58.4375 7.019531 58.472656 7.1875 58.472656 7.359375 C 58.472656 7.535156 58.4375 7.703125 58.371094 7.863281 C 58.304688 8.023438 58.210938 8.164062 58.085938 8.289062 C 57.964844 8.410156 57.824219 8.507812 57.660156 8.574219 C 57.5 8.640625 57.332031 8.671875 57.160156 8.671875 Z M 57.15625 8.671875 "/><path style=" stroke:none;fill-rule:nonzero;fill:#ffffff;fill-opacity:1;" d="M 44.574219 14.296875 L 36.488281 14.296875 C 36.3125 14.296875 36.144531 14.261719 35.984375 14.195312 C 35.824219 14.128906 35.683594 14.035156 35.558594 13.914062 C 35.4375 13.789062 35.339844 13.648438 35.273438 13.488281 C 35.207031 13.324219 35.175781 13.160156 35.175781 12.984375 C 35.175781 12.808594 35.207031 12.644531 35.273438 12.480469 C 35.339844 12.320312 35.4375 12.179688 35.558594 12.054688 C 35.683594 11.933594 35.824219 11.839844 35.984375 11.773438 C 36.144531 11.703125 36.3125 11.671875 36.488281 11.671875 L 44.574219 11.671875 C 44.746094 11.671875 44.914062 11.703125 45.074219 11.773438 C 45.234375 11.839844 45.378906 11.933594 45.5 12.054688 C 45.625 12.179688 45.71875 12.320312 45.785156 12.480469 C 45.851562 12.644531 45.886719 12.808594 45.886719 12.984375 C 45.886719 13.160156 45.851562 13.324219 45.785156 13.488281 C 45.71875 13.648438 45.625 13.789062 45.5 13.914062 C 45.378906 14.035156 45.234375 14.128906 45.074219 14.195312 C 44.914062 14.261719 44.746094 14.296875 44.574219 14.296875 Z M 44.574219 14.296875 "/><g clip-rule="nonzero" clip-path="url(#ec8496c49f)"><path style=" stroke:none;fill-rule:nonzero;fill:#ffffff;fill-opacity:1;" d="M 61.269531 47.859375 C 60.425781 47.859375 59.585938 47.941406 58.757812 48.105469 C 57.925781 48.269531 57.121094 48.515625 56.339844 48.839844 C 55.558594 49.164062 54.816406 49.558594 54.113281 50.03125 C 53.410156 50.5 52.757812 51.035156 52.160156 51.632812 C 51.5625 52.230469 51.027344 52.882812 50.554688 53.585938 C 50.085938 54.289062 49.6875 55.03125 49.367188 55.8125 C 49.042969 56.59375 48.796875 57.398438 48.632812 58.230469 C 48.464844 59.058594 48.382812 59.898438 48.382812 60.742188 C 48.382812 61.589844 48.464844 62.429688 48.632812 63.257812 C 48.796875 64.085938 49.039062 64.894531 49.363281 65.675781 C 49.6875 66.457031 50.085938 67.199219 50.554688 67.902344 C 51.023438 68.605469 51.558594 69.257812 52.15625 69.855469 C 52.757812 70.453125 53.40625 70.988281 54.109375 71.457031 C 54.8125 71.929688 55.554688 72.324219 56.339844 72.648438 C 57.121094 72.972656 57.925781 73.21875 58.753906 73.382812 C 59.585938 73.546875 60.421875 73.632812 61.269531 73.632812 C 62.117188 73.632812 62.953125 73.546875 63.785156 73.382812 C 64.613281 73.21875 65.417969 72.972656 66.199219 72.648438 C 66.984375 72.328125 67.726562 71.929688 68.429688 71.460938 C 69.132812 70.988281 69.785156 70.453125 70.382812 69.855469 C 70.980469 69.257812 71.515625 68.609375 71.984375 67.902344 C 72.453125 67.199219 72.851562 66.457031 73.175781 65.675781 C 73.5 64.894531 73.742188 64.089844 73.910156 63.257812 C 74.074219 62.429688 74.15625 61.589844 74.15625 60.746094 C 74.15625 59.898438 74.070312 59.0625 73.90625 58.230469 C 73.742188 57.402344 73.496094 56.597656 73.171875 55.816406 C 72.847656 55.035156 72.449219 54.292969 71.980469 53.589844 C 71.511719 52.886719 70.976562 52.234375 70.378906 51.636719 C 69.78125 51.039062 69.128906 50.503906 68.425781 50.035156 C 67.722656 49.566406 66.980469 49.167969 66.199219 48.84375 C 65.417969 48.519531 64.613281 48.273438 63.785156 48.109375 C 62.953125 47.941406 62.117188 47.859375 61.269531 47.859375 Z M 67.855469 57.804688 L 60.113281 65.539062 C 59.988281 65.664062 59.847656 65.757812 59.6875 65.824219 C 59.527344 65.890625 59.359375 65.921875 59.183594 65.921875 C 59.011719 65.921875 58.84375 65.890625 58.683594 65.824219 C 58.523438 65.757812 58.378906 65.664062 58.257812 65.539062 L 54.683594 61.96875 C 54.5625 61.84375 54.46875 61.703125 54.402344 61.542969 C 54.335938 61.378906 54.300781 61.210938 54.300781 61.039062 C 54.300781 60.863281 54.335938 60.695312 54.402344 60.535156 C 54.46875 60.375 54.5625 60.234375 54.6875 60.109375 C 54.808594 59.988281 54.953125 59.890625 55.113281 59.824219 C 55.273438 59.757812 55.441406 59.726562 55.617188 59.726562 C 55.789062 59.726562 55.957031 59.757812 56.117188 59.824219 C 56.28125 59.890625 56.421875 59.988281 56.546875 60.109375 L 59.195312 62.753906 L 66 55.949219 C 66.125 55.832031 66.269531 55.742188 66.425781 55.683594 C 66.585938 55.621094 66.75 55.589844 66.921875 55.59375 C 67.089844 55.597656 67.253906 55.632812 67.410156 55.699219 C 67.570312 55.765625 67.707031 55.859375 67.828125 55.976562 C 67.949219 56.097656 68.042969 56.238281 68.109375 56.394531 C 68.175781 56.550781 68.210938 56.714844 68.210938 56.886719 C 68.214844 57.054688 68.183594 57.222656 68.125 57.378906 C 68.0625 57.539062 67.972656 57.679688 67.855469 57.804688 Z M 67.855469 57.804688 "/></g><path style=" stroke:none;fill-rule:nonzero;fill:#ffffff;fill-opacity:1;" d="M 13.621094 48.960938 L 7.714844 48.960938 C 7.542969 48.960938 7.375 48.929688 7.214844 48.863281 C 7.054688 48.796875 6.910156 48.699219 6.789062 48.578125 C 6.664062 48.453125 6.570312 48.3125 6.503906 48.152344 C 6.4375 47.992188 6.402344 47.824219 6.402344 47.648438 C 6.402344 47.476562 6.4375 47.308594 6.503906 47.148438 C 6.570312 46.988281 6.664062 46.84375 6.789062 46.722656 C 6.910156 46.597656 7.054688 46.503906 7.214844 46.4375 C 7.375 46.371094 7.542969 46.335938 7.714844 46.335938 L 13.621094 46.335938 C 13.796875 46.335938 13.964844 46.371094 14.125 46.4375 C 14.285156 46.503906 14.425781 46.597656 14.550781 46.722656 C 14.671875 46.84375 14.769531 46.988281 14.835938 47.148438 C 14.902344 47.308594 14.933594 47.476562 14.933594 47.648438 C 14.933594 47.824219 14.902344 47.992188 14.835938 48.152344 C 14.769531 48.3125 14.671875 48.453125 14.550781 48.578125 C 14.425781 48.699219 14.285156 48.796875 14.125 48.863281 C 13.964844 48.929688 13.796875 48.960938 13.621094 48.960938 Z M 13.621094 48.960938 "/><path style=" stroke:none;fill-rule:nonzero;fill:#ffffff;fill-opacity:1;" d="M 13.621094 53.671875 L 7.714844 53.671875 C 7.542969 53.671875 7.375 53.636719 7.214844 53.570312 C 7.054688 53.503906 6.910156 53.410156 6.789062 53.289062 C 6.664062 53.164062 6.570312 53.023438 6.503906 52.863281 C 6.4375 52.699219 6.402344 52.535156 6.402344 52.359375 C 6.402344 52.183594 6.4375 52.019531 6.503906 51.855469 C 6.570312 51.695312 6.664062 51.554688 6.789062 51.429688 C 6.910156 51.308594 7.054688 51.214844 7.214844 51.148438 C 7.375 51.078125 7.542969 51.046875 7.714844 51.046875 L 13.621094 51.046875 C 13.796875 51.046875 13.964844 51.078125 14.125 51.148438 C 14.285156 51.214844 14.425781 51.308594 14.550781 51.429688 C 14.671875 51.554688 14.769531 51.695312 14.835938 51.855469 C 14.902344 52.019531 14.933594 52.183594 14.933594 52.359375 C 14.933594 52.535156 14.902344 52.699219 14.835938 52.863281 C 14.769531 53.023438 14.671875 53.164062 14.550781 53.289062 C 14.425781 53.410156 14.285156 53.503906 14.125 53.570312 C 13.964844 53.636719 13.796875 53.671875 13.621094 53.671875 Z M 13.621094 53.671875 "/><path style=" stroke:none;fill-rule:nonzero;fill:#ffffff;fill-opacity:1;" d="M 43.109375 42.207031 C 42.730469 42.207031 42.351562 42.171875 41.980469 42.097656 C 41.605469 42.023438 41.242188 41.914062 40.890625 41.765625 C 40.539062 41.621094 40.207031 41.441406 39.890625 41.230469 C 39.574219 41.019531 39.28125 40.78125 39.011719 40.511719 C 38.742188 40.242188 38.503906 39.949219 38.292969 39.632812 C 38.078125 39.316406 37.902344 38.980469 37.753906 38.628906 C 37.609375 38.277344 37.5 37.917969 37.425781 37.542969 C 37.351562 37.167969 37.3125 36.792969 37.3125 36.414062 C 37.3125 36.03125 37.351562 35.65625 37.425781 35.28125 C 37.5 34.910156 37.609375 34.546875 37.753906 34.195312 C 37.902344 33.84375 38.078125 33.507812 38.292969 33.191406 C 38.503906 32.875 38.742188 32.582031 39.011719 32.3125 C 39.28125 32.042969 39.574219 31.804688 39.890625 31.59375 C 40.207031 31.382812 40.539062 31.203125 40.890625 31.058594 C 41.242188 30.910156 41.605469 30.800781 41.980469 30.726562 C 42.351562 30.652344 42.730469 30.617188 43.109375 30.617188 C 43.492188 30.617188 43.867188 30.652344 44.242188 30.726562 C 44.613281 30.800781 44.976562 30.910156 45.328125 31.058594 C 45.679688 31.203125 46.015625 31.382812 46.332031 31.59375 C 46.648438 31.804688 46.941406 32.042969 47.207031 32.3125 C 47.476562 32.582031 47.71875 32.875 47.929688 33.191406 C 48.140625 33.507812 48.320312 33.84375 48.464844 34.195312 C 48.609375 34.546875 48.722656 34.910156 48.796875 35.28125 C 48.871094 35.65625 48.90625 36.03125 48.90625 36.414062 C 48.90625 36.792969 48.867188 37.167969 48.792969 37.542969 C 48.71875 37.914062 48.609375 38.277344 48.464844 38.628906 C 48.316406 38.980469 48.140625 39.316406 47.925781 39.628906 C 47.714844 39.945312 47.476562 40.238281 47.207031 40.507812 C 46.9375 40.777344 46.644531 41.019531 46.328125 41.230469 C 46.011719 41.441406 45.679688 41.621094 45.328125 41.765625 C 44.976562 41.910156 44.613281 42.019531 44.242188 42.097656 C 43.867188 42.171875 43.492188 42.207031 43.109375 42.207031 Z M 43.109375 33.242188 C 42.691406 33.242188 42.285156 33.320312 41.898438 33.484375 C 41.507812 33.644531 41.164062 33.871094 40.867188 34.171875 C 40.570312 34.46875 40.339844 34.808594 40.179688 35.199219 C 40.019531 35.585938 39.9375 35.992188 39.9375 36.414062 C 39.9375 36.832031 40.019531 37.238281 40.179688 37.625 C 40.339844 38.015625 40.570312 38.355469 40.867188 38.65625 C 41.164062 38.953125 41.507812 39.179688 41.898438 39.34375 C 42.285156 39.503906 42.691406 39.582031 43.109375 39.582031 C 43.53125 39.582031 43.933594 39.503906 44.324219 39.34375 C 44.710938 39.179688 45.054688 38.953125 45.351562 38.65625 C 45.648438 38.355469 45.878906 38.015625 46.039062 37.625 C 46.199219 37.238281 46.28125 36.832031 46.28125 36.414062 C 46.28125 35.992188 46.199219 35.585938 46.039062 35.199219 C 45.878906 34.8125 45.648438 34.46875 45.351562 34.171875 C 45.054688 33.875 44.710938 33.644531 44.324219 33.484375 C 43.933594 33.324219 43.53125 33.242188 43.109375 33.242188 Z M 43.109375 33.242188 "/><path style=" stroke:none;fill-rule:nonzero;fill:#ffffff;fill-opacity:1;" d="M 43.109375 33.242188 C 42.9375 33.242188 42.769531 33.207031 42.609375 33.140625 C 42.449219 33.074219 42.304688 32.980469 42.183594 32.855469 C 42.058594 32.734375 41.964844 32.59375 41.898438 32.429688 C 41.832031 32.269531 41.796875 32.101562 41.796875 31.929688 L 41.796875 29.800781 C 41.796875 29.628906 41.832031 29.460938 41.898438 29.300781 C 41.964844 29.136719 42.058594 28.996094 42.183594 28.875 C 42.304688 28.75 42.449219 28.65625 42.609375 28.589844 C 42.769531 28.523438 42.9375 28.488281 43.109375 28.488281 C 43.285156 28.488281 43.453125 28.523438 43.613281 28.589844 C 43.773438 28.65625 43.914062 28.75 44.039062 28.875 C 44.160156 28.996094 44.257812 29.136719 44.324219 29.300781 C 44.390625 29.460938 44.421875 29.628906 44.421875 29.800781 L 44.421875 31.929688 C 44.421875 32.101562 44.390625 32.269531 44.324219 32.429688 C 44.257812 32.59375 44.160156 32.734375 44.039062 32.855469 C 43.914062 32.980469 43.773438 33.074219 43.613281 33.140625 C 43.453125 33.207031 43.285156 33.242188 43.109375 33.242188 Z M 43.109375 33.242188 "/><path style=" stroke:none;fill-rule:nonzero;fill:#ffffff;fill-opacity:1;" d="M 39.941406 34.554688 C 39.578125 34.554688 39.269531 34.425781 39.011719 34.167969 L 37.507812 32.664062 C 37.382812 32.542969 37.285156 32.402344 37.214844 32.238281 C 37.144531 32.078125 37.109375 31.910156 37.109375 31.734375 C 37.105469 31.554688 37.140625 31.386719 37.207031 31.222656 C 37.273438 31.0625 37.367188 30.917969 37.492188 30.792969 C 37.617188 30.667969 37.761719 30.574219 37.921875 30.507812 C 38.085938 30.441406 38.253906 30.40625 38.433594 30.410156 C 38.609375 30.410156 38.777344 30.445312 38.9375 30.515625 C 39.101562 30.585938 39.242188 30.683594 39.363281 30.808594 L 40.867188 32.3125 C 41.054688 32.5 41.175781 32.726562 41.226562 32.984375 C 41.28125 33.246094 41.253906 33.5 41.152344 33.742188 C 41.050781 33.988281 40.890625 34.183594 40.667969 34.332031 C 40.449219 34.480469 40.207031 34.554688 39.941406 34.554688 Z M 39.941406 34.554688 "/><path style=" stroke:none;fill-rule:nonzero;fill:#ffffff;fill-opacity:1;" d="M 38.625 37.726562 L 36.5 37.726562 C 36.328125 37.726562 36.160156 37.691406 36 37.625 C 35.835938 37.558594 35.695312 37.464844 35.574219 37.339844 C 35.449219 37.21875 35.355469 37.074219 35.289062 36.914062 C 35.222656 36.753906 35.1875 36.585938 35.1875 36.414062 C 35.1875 36.238281 35.222656 36.070312 35.289062 35.910156 C 35.355469 35.75 35.449219 35.605469 35.574219 35.484375 C 35.695312 35.359375 35.835938 35.265625 36 35.199219 C 36.160156 35.132812 36.328125 35.101562 36.5 35.101562 L 38.625 35.101562 C 38.800781 35.101562 38.96875 35.132812 39.128906 35.199219 C 39.289062 35.265625 39.433594 35.359375 39.554688 35.484375 C 39.679688 35.605469 39.773438 35.75 39.839844 35.910156 C 39.90625 36.070312 39.9375 36.238281 39.9375 36.414062 C 39.9375 36.585938 39.90625 36.753906 39.839844 36.914062 C 39.773438 37.074219 39.679688 37.21875 39.554688 37.339844 C 39.433594 37.464844 39.289062 37.558594 39.128906 37.625 C 38.96875 37.691406 38.800781 37.726562 38.625 37.726562 Z M 38.625 37.726562 "/><path style=" stroke:none;fill-rule:nonzero;fill:#ffffff;fill-opacity:1;" d="M 38.4375 42.398438 C 38.171875 42.398438 37.929688 42.324219 37.707031 42.175781 C 37.488281 42.03125 37.324219 41.832031 37.222656 41.589844 C 37.121094 41.34375 37.097656 41.089844 37.148438 40.832031 C 37.203125 40.570312 37.320312 40.347656 37.507812 40.15625 L 39.011719 38.652344 C 39.136719 38.535156 39.277344 38.441406 39.4375 38.378906 C 39.597656 38.316406 39.765625 38.285156 39.9375 38.285156 C 40.109375 38.289062 40.273438 38.320312 40.433594 38.386719 C 40.589844 38.453125 40.730469 38.546875 40.851562 38.671875 C 40.972656 38.792969 41.070312 38.933594 41.136719 39.089844 C 41.203125 39.25 41.234375 39.414062 41.238281 39.585938 C 41.238281 39.757812 41.207031 39.925781 41.144531 40.085938 C 41.078125 40.246094 40.988281 40.386719 40.867188 40.511719 L 39.363281 42.015625 C 39.109375 42.269531 38.800781 42.398438 38.4375 42.398438 Z M 38.4375 42.398438 "/><path style=" stroke:none;fill-rule:nonzero;fill:#ffffff;fill-opacity:1;" d="M 43.109375 44.335938 C 42.9375 44.335938 42.769531 44.300781 42.609375 44.234375 C 42.449219 44.167969 42.304688 44.074219 42.183594 43.949219 C 42.058594 43.828125 41.964844 43.683594 41.898438 43.523438 C 41.832031 43.363281 41.796875 43.195312 41.796875 43.023438 L 41.796875 40.894531 C 41.796875 40.722656 41.832031 40.554688 41.898438 40.394531 C 41.964844 40.234375 42.058594 40.089844 42.183594 39.96875 C 42.304688 39.84375 42.449219 39.75 42.609375 39.683594 C 42.769531 39.617188 42.9375 39.582031 43.109375 39.582031 C 43.285156 39.582031 43.453125 39.617188 43.613281 39.683594 C 43.773438 39.75 43.914062 39.84375 44.039062 39.96875 C 44.160156 40.089844 44.257812 40.234375 44.324219 40.394531 C 44.390625 40.554688 44.421875 40.722656 44.421875 40.894531 L 44.421875 43.023438 C 44.421875 43.195312 44.390625 43.363281 44.324219 43.523438 C 44.257812 43.683594 44.160156 43.828125 44.039062 43.949219 C 43.914062 44.074219 43.773438 44.167969 43.613281 44.234375 C 43.453125 44.300781 43.285156 44.335938 43.109375 44.335938 Z M 43.109375 44.335938 "/><path style=" stroke:none;fill-rule:nonzero;fill:#ffffff;fill-opacity:1;" d="M 47.785156 42.398438 C 47.421875 42.398438 47.113281 42.269531 46.855469 42.015625 L 45.351562 40.511719 C 45.234375 40.386719 45.140625 40.246094 45.078125 40.085938 C 45.015625 39.925781 44.984375 39.757812 44.984375 39.585938 C 44.988281 39.414062 45.019531 39.25 45.085938 39.089844 C 45.152344 38.933594 45.246094 38.792969 45.371094 38.671875 C 45.492188 38.546875 45.632812 38.453125 45.789062 38.386719 C 45.949219 38.320312 46.113281 38.289062 46.285156 38.285156 C 46.457031 38.285156 46.625 38.316406 46.785156 38.378906 C 46.945312 38.441406 47.085938 38.535156 47.210938 38.652344 L 48.710938 40.160156 C 48.898438 40.347656 49.019531 40.574219 49.070312 40.832031 C 49.121094 41.09375 49.097656 41.347656 48.996094 41.589844 C 48.894531 41.835938 48.734375 42.03125 48.511719 42.179688 C 48.292969 42.328125 48.050781 42.402344 47.785156 42.402344 Z M 47.785156 42.398438 "/><path style=" stroke:none;fill-rule:nonzero;fill:#ffffff;fill-opacity:1;" d="M 49.71875 37.726562 L 47.59375 37.726562 C 47.417969 37.726562 47.253906 37.691406 47.089844 37.625 C 46.929688 37.558594 46.789062 37.464844 46.664062 37.339844 C 46.542969 37.21875 46.449219 37.074219 46.382812 36.914062 C 46.316406 36.753906 46.28125 36.585938 46.28125 36.414062 C 46.28125 36.238281 46.316406 36.070312 46.382812 35.910156 C 46.449219 35.75 46.542969 35.605469 46.664062 35.484375 C 46.789062 35.359375 46.929688 35.265625 47.089844 35.199219 C 47.253906 35.132812 47.417969 35.101562 47.59375 35.101562 L 49.71875 35.101562 C 49.894531 35.101562 50.0625 35.132812 50.222656 35.199219 C 50.382812 35.265625 50.523438 35.359375 50.648438 35.484375 C 50.769531 35.605469 50.867188 35.75 50.933594 35.910156 C 51 36.070312 51.03125 36.238281 51.03125 36.414062 C 51.03125 36.585938 51 36.753906 50.933594 36.914062 C 50.867188 37.074219 50.769531 37.21875 50.648438 37.339844 C 50.523438 37.464844 50.382812 37.558594 50.222656 37.625 C 50.0625 37.691406 49.894531 37.726562 49.71875 37.726562 Z M 49.71875 37.726562 "/><path style=" stroke:none;fill-rule:nonzero;fill:#ffffff;fill-opacity:1;" d="M 46.28125 34.554688 C 46.015625 34.554688 45.773438 34.480469 45.550781 34.332031 C 45.332031 34.183594 45.171875 33.988281 45.070312 33.742188 C 44.96875 33.5 44.941406 33.246094 44.996094 32.984375 C 45.046875 32.726562 45.164062 32.5 45.351562 32.3125 L 46.855469 30.808594 C 46.980469 30.691406 47.121094 30.597656 47.28125 30.535156 C 47.441406 30.46875 47.605469 30.4375 47.78125 30.441406 C 47.953125 30.441406 48.117188 30.476562 48.277344 30.542969 C 48.433594 30.609375 48.574219 30.703125 48.695312 30.824219 C 48.816406 30.945312 48.910156 31.085938 48.976562 31.246094 C 49.046875 31.40625 49.078125 31.570312 49.082031 31.742188 C 49.082031 31.914062 49.050781 32.078125 48.988281 32.238281 C 48.921875 32.398438 48.832031 32.542969 48.710938 32.664062 L 47.210938 34.167969 C 46.953125 34.425781 46.644531 34.554688 46.28125 34.554688 Z M 46.28125 34.554688 "/></g></svg>