<svg width="26" height="26" viewBox="0 0 26 26" fill="none" xmlns="http://www.w3.org/2000/svg">
<g clip-path="url(#clip0_1233_1048)">
<g clip-path="url(#clip1_1233_1048)">
<path d="M7.99177 18.008H18.0078M8.99336 15.0032V11.9984M12.9998 15.0032V9.99521M17.0062 15.0032V7.99201M11.1969 22.0144H14.8027C17.8073 22.0144 19.3096 22.0144 20.3627 21.2493C20.7029 21.0021 21.0019 20.7031 21.249 20.3629C22.0142 19.3098 22.0142 17.8075 22.0142 14.8029V11.1971C22.0142 8.19254 22.0142 6.69024 21.249 5.6371C21.0019 5.29697 20.7029 4.99787 20.3627 4.75075C19.3096 3.9856 17.8073 3.9856 14.8027 3.9856H11.1969C8.19229 3.9856 6.69 3.9856 5.63685 4.75075C5.29673 4.99787 4.99762 5.29697 4.75051 5.6371C3.98535 6.69024 3.98535 8.19254 3.98535 11.1971V14.8029C3.98535 17.8075 3.98535 19.3098 4.75051 20.3629C4.99762 20.7031 5.29673 21.0021 5.63685 21.2493C6.69 22.0144 8.19229 22.0144 11.1969 22.0144Z" stroke="white" stroke-width="1.5024" stroke-linecap="round" stroke-linejoin="round"/>
</g>
</g>
<defs>
<clipPath id="clip0_1233_1048">
<rect width="25" height="25" fill="white" transform="translate(0.5 0.5)"/>
</clipPath>
<clipPath id="clip1_1233_1048">
<rect width="25" height="25" fill="white" transform="translate(0.5 0.5)"/>
</clipPath>
</defs>
</svg>
