<svg xmlns="http://www.w3.org/2000/svg" xmlns:xlink="http://www.w3.org/1999/xlink" width="100" zoomAndPan="magnify" viewBox="0 0 75 74.999997" height="100" preserveAspectRatio="xMidYMid meet" version="1.2"><defs><clipPath id="4d6432f363"><path d="M 58 13.96875 L 64 13.96875 L 64 20 L 58 20 Z M 58 13.96875 "/></clipPath><clipPath id="fb557ed078"><path d="M 22 27 L 75 27 L 75 61.21875 L 22 61.21875 Z M 22 27 "/></clipPath></defs><g id="a26a6a4299"><path style=" stroke:none;fill-rule:nonzero;fill:#ffffff;fill-opacity:1;" d="M 24.105469 32.058594 C 23.6875 32.296875 23.238281 32.417969 22.757812 32.417969 C 22.234375 32.417969 21.753906 32.296875 21.351562 32.058594 C 20.945312 31.816406 20.601562 31.503906 20.378906 31.082031 C 20.152344 30.664062 20.03125 30.230469 20.03125 29.734375 L 16.8125 29.734375 C 16.8125 30.828125 17.066406 31.816406 17.605469 32.714844 C 18.144531 33.613281 18.851562 34.316406 19.75 34.84375 C 20.648438 35.367188 21.648438 35.636719 22.773438 35.636719 C 23.851562 35.636719 24.855469 35.367188 25.753906 34.828125 C 26.652344 34.304688 27.371094 33.585938 27.925781 32.6875 C 28.464844 31.789062 28.746094 30.800781 28.746094 29.722656 C 28.746094 29.152344 28.65625 28.566406 28.464844 28 C 28.285156 27.429688 28 26.90625 27.640625 26.457031 C 27.28125 26.007812 26.832031 25.679688 26.292969 25.484375 C 26.921875 25.199219 27.386719 24.71875 27.714844 24.03125 C 28.042969 23.34375 28.207031 22.652344 28.207031 21.933594 C 28.207031 20.917969 27.953125 19.988281 27.445312 19.179688 C 26.9375 18.355469 26.261719 17.695312 25.410156 17.203125 C 24.554688 16.722656 23.65625 16.453125 22.652344 16.453125 C 21.890625 16.453125 21.1875 16.589844 20.480469 16.875 C 19.792969 17.15625 19.179688 17.5625 18.625 18.054688 C 18.085938 18.550781 17.652344 19.132812 17.351562 19.792969 C 17.054688 20.46875 16.902344 21.171875 16.902344 21.917969 L 20.121094 21.917969 C 20.121094 21.515625 20.242188 21.125 20.496094 20.78125 C 20.75 20.4375 21.066406 20.152344 21.46875 19.957031 C 21.859375 19.75 22.277344 19.660156 22.699219 19.660156 C 23.101562 19.660156 23.492188 19.761719 23.835938 19.957031 C 24.179688 20.167969 24.464844 20.4375 24.675781 20.78125 C 24.882812 21.125 24.988281 21.515625 24.988281 21.917969 C 24.988281 22.726562 24.675781 23.328125 24.03125 23.746094 C 23.386719 24.152344 22.535156 24.375 21.441406 24.375 L 21.441406 26.847656 C 22.25 26.847656 22.953125 26.949219 23.566406 27.160156 C 24.179688 27.371094 24.660156 27.683594 24.988281 28.117188 C 25.332031 28.539062 25.5 29.078125 25.5 29.722656 C 25.5 30.199219 25.378906 30.664062 25.125 31.070312 C 24.871094 31.503906 24.539062 31.832031 24.105469 32.058594 Z M 24.105469 32.058594 "/><path style=" stroke:none;fill-rule:nonzero;fill:#ffffff;fill-opacity:1;" d="M 33.40625 34.765625 C 34.394531 35.367188 35.472656 35.652344 36.652344 35.652344 C 37.566406 35.652344 38.40625 35.484375 39.199219 35.15625 C 39.992188 34.828125 40.683594 34.347656 41.28125 33.75 C 41.878906 33.136719 42.34375 32.460938 42.6875 31.667969 C 43.019531 30.875 43.183594 30.050781 43.183594 29.152344 C 43.183594 28.402344 43.0625 27.699219 42.839844 27.039062 C 42.613281 26.382812 42.285156 25.78125 41.851562 25.242188 C 41.429688 24.71875 40.9375 24.253906 40.382812 23.882812 C 39.828125 23.507812 39.214844 23.222656 38.539062 23.042969 C 37.882812 22.863281 37.191406 22.804688 36.472656 22.863281 L 39.949219 16.875 L 36.21875 16.875 L 31.054688 25.859375 C 30.753906 26.382812 30.53125 26.921875 30.363281 27.445312 C 30.199219 27.96875 30.15625 28.539062 30.15625 29.152344 C 30.15625 30.351562 30.441406 31.441406 31.039062 32.429688 C 31.652344 33.390625 32.417969 34.167969 33.40625 34.765625 Z M 33.808594 27.519531 C 34.09375 27.027344 34.484375 26.605469 34.976562 26.308594 C 35.472656 25.992188 36.039062 25.84375 36.683594 25.84375 C 37.3125 25.84375 37.867188 25.992188 38.359375 26.292969 C 38.855469 26.589844 39.257812 26.996094 39.542969 27.488281 C 39.828125 27.984375 39.976562 28.554688 39.976562 29.136719 C 39.976562 29.691406 39.84375 30.230469 39.558594 30.722656 C 39.273438 31.21875 38.871094 31.636719 38.375 31.9375 C 37.882812 32.238281 37.296875 32.402344 36.667969 32.402344 C 36.101562 32.402344 35.5625 32.25 35.066406 31.96875 C 34.574219 31.683594 34.167969 31.277344 33.855469 30.800781 C 33.554688 30.320312 33.40625 29.75 33.40625 29.136719 C 33.390625 28.566406 33.523438 28.027344 33.808594 27.519531 Z M 33.808594 27.519531 "/><path style=" stroke:none;fill-rule:nonzero;fill:#ffffff;fill-opacity:1;" d="M 46.761719 32.835938 C 47.40625 33.71875 48.152344 34.394531 49.039062 34.902344 C 49.921875 35.394531 50.894531 35.652344 51.957031 35.652344 C 53.035156 35.652344 54.007812 35.410156 54.878906 34.902344 C 55.761719 34.40625 56.507812 33.71875 57.136719 32.835938 C 57.765625 31.953125 58.261719 30.933594 58.589844 29.78125 C 58.933594 28.628906 59.101562 27.386719 59.101562 26.066406 C 59.101562 24.75 58.933594 23.523438 58.589844 22.355469 C 58.246094 21.199219 57.753906 20.183594 57.136719 19.300781 C 56.523438 18.414062 55.761719 17.742188 54.878906 17.234375 C 53.992188 16.738281 53.019531 16.484375 51.957031 16.484375 C 50.878906 16.484375 49.90625 16.722656 49.039062 17.234375 C 48.152344 17.726562 47.40625 18.414062 46.761719 19.300781 C 46.117188 20.183594 45.636719 21.199219 45.292969 22.355469 C 44.949219 23.507812 44.785156 24.75 44.785156 26.066406 C 44.785156 27.386719 44.949219 28.613281 45.292969 29.78125 C 45.636719 30.933594 46.117188 31.953125 46.761719 32.835938 Z M 48.050781 23.703125 C 48.214844 22.9375 48.46875 22.265625 48.8125 21.664062 C 49.15625 21.082031 49.589844 20.585938 50.117188 20.257812 C 50.625 19.914062 51.253906 19.75 51.972656 19.75 C 52.886719 19.75 53.632812 20.03125 54.25 20.601562 C 54.878906 21.171875 55.328125 21.933594 55.640625 22.90625 C 55.957031 23.867188 56.105469 24.945312 56.105469 26.113281 C 56.105469 27.21875 55.957031 28.253906 55.65625 29.226562 C 55.355469 30.199219 54.890625 30.964844 54.292969 31.578125 C 53.664062 32.175781 52.902344 32.476562 51.957031 32.476562 C 51.027344 32.476562 50.25 32.175781 49.636719 31.578125 C 49.007812 30.980469 48.558594 30.199219 48.257812 29.226562 C 47.960938 28.253906 47.808594 27.21875 47.808594 26.113281 C 47.78125 25.257812 47.871094 24.464844 48.050781 23.703125 Z M 48.050781 23.703125 "/><g clip-rule="nonzero" clip-path="url(#4d6432f363)"><path style=" stroke:none;fill-rule:nonzero;fill:#ffffff;fill-opacity:1;" d="M 60.957031 19.03125 C 62.347656 19.03125 63.488281 17.890625 63.488281 16.5 C 63.488281 15.105469 62.347656 13.96875 60.957031 13.96875 C 59.5625 13.96875 58.425781 15.105469 58.425781 16.5 C 58.410156 17.890625 59.550781 19.03125 60.957031 19.03125 Z M 60.957031 15.40625 C 61.570312 15.40625 62.066406 15.898438 62.066406 16.515625 C 62.066406 17.128906 61.570312 17.621094 60.957031 17.621094 C 60.34375 17.621094 59.847656 17.128906 59.847656 16.515625 C 59.847656 15.898438 60.328125 15.40625 60.957031 15.40625 Z M 60.957031 15.40625 "/></g><path style=" stroke:none;fill-rule:nonzero;fill:#ffffff;fill-opacity:1;" d="M 6.871094 37.433594 C 6.871094 34.527344 9.238281 31.847656 13.21875 29.707031 L 13.21875 27.460938 C 5.164062 30.335938 0.0585938 34.617188 0.0585938 39.394531 C 0.0585938 45.144531 7.457031 50.175781 18.492188 52.902344 L 19.839844 46.703125 C 11.992188 44.875 6.871094 41.714844 6.871094 37.433594 Z M 6.871094 37.433594 "/><g clip-rule="nonzero" clip-path="url(#fb557ed078)"><path style=" stroke:none;fill-rule:nonzero;fill:#ffffff;fill-opacity:1;" d="M 62.664062 27.789062 L 62.664062 30.214844 C 66.09375 32.265625 68.113281 34.753906 68.113281 37.433594 C 68.113281 44.320312 54.847656 48.332031 38.316406 48.453125 L 38.796875 42.851562 L 27.847656 47.988281 L 22.292969 50.59375 L 37.253906 61.03125 L 37.761719 55.070312 C 58.320312 55.011719 74.941406 48.019531 74.941406 39.394531 C 74.925781 34.796875 70.195312 30.664062 62.664062 27.789062 Z M 62.664062 27.789062 "/></g></g></svg>